<?xml version="1.0" encoding="utf-8"?>
<svg version="1.1" xmlns:xlink="http://www.w3.org/1999/xlink" width="1190px" height="359px" xmlns="http://www.w3.org/2000/svg">
  <defs>
    <filter x="15px" y="691px" width="1190px" height="359px" filterUnits="userSpaceOnUse" id="filter553">
      <feOffset dx="0" dy="0" in="SourceAlpha" result="shadowOffsetInner" />
      <feGaussianBlur stdDeviation="2.5" in="shadowOffsetInner" result="shadowGaussian" />
      <feComposite in2="shadowGaussian" operator="atop" in="SourceAlpha" result="shadowComposite" />
      <feColorMatrix type="matrix" values="0 0 0 0 0.8941176470588235  0 0 0 0 0.8941176470588235  0 0 0 0 0.8941176470588235  0 0 0 1 0  " in="shadowComposite" />
    </filter>
    <g id="widget554">
      <path d="M 21 708  A 11 11 0 0 1 32 697 L 1188 697  A 11 11 0 0 1 1199 708 L 1199 1033  A 11 11 0 0 1 1188 1044 L 32 1044  A 11 11 0 0 1 21 1033 L 21 708  Z " fill-rule="nonzero" fill="#ffffff" stroke="none" />
      <path d="M 20.5 708  A 11.5 11.5 0 0 1 32 696.5 L 1188 696.5  A 11.5 11.5 0 0 1 1199.5 708 L 1199.5 1033  A 11.5 11.5 0 0 1 1188 1044.5 L 32 1044.5  A 11.5 11.5 0 0 1 20.5 1033 L 20.5 708  Z " stroke-width="1" stroke="#f2f2f2" fill="none" stroke-opacity="0.9882352941176471" />
    </g>
  </defs>
  <g transform="matrix(1 0 0 1 -15 -691 )">
    <use xlink:href="#widget554" filter="url(#filter553)" />
    <use xlink:href="#widget554" />
  </g>
</svg>