<?xml version="1.0" encoding="utf-8"?>
<svg version="1.1" xmlns:xlink="http://www.w3.org/1999/xlink" width="1190px" height="403px" xmlns="http://www.w3.org/2000/svg">
  <defs>
    <filter x="15px" y="281px" width="1190px" height="403px" filterUnits="userSpaceOnUse" id="filter555">
      <feOffset dx="0" dy="0" in="SourceAlpha" result="shadowOffsetInner" />
      <feGaussianBlur stdDeviation="2.5" in="shadowOffsetInner" result="shadowGaussian" />
      <feComposite in2="shadowGaussian" operator="atop" in="SourceAlpha" result="shadowComposite" />
      <feColorMatrix type="matrix" values="0 0 0 0 0.8941176470588235  0 0 0 0 0.8941176470588235  0 0 0 0 0.8941176470588235  0 0 0 1 0  " in="shadowComposite" />
    </filter>
    <g id="widget556">
      <path d="M 21 298  A 11 11 0 0 1 32 287 L 1188 287  A 11 11 0 0 1 1199 298 L 1199 667  A 11 11 0 0 1 1188 678 L 32 678  A 11 11 0 0 1 21 667 L 21 298  Z " fill-rule="nonzero" fill="#ffffff" stroke="none" />
      <path d="M 20.5 298  A 11.5 11.5 0 0 1 32 286.5 L 1188 286.5  A 11.5 11.5 0 0 1 1199.5 298 L 1199.5 667  A 11.5 11.5 0 0 1 1188 678.5 L 32 678.5  A 11.5 11.5 0 0 1 20.5 667 L 20.5 298  Z " stroke-width="1" stroke="#f2f2f2" fill="none" stroke-opacity="0.9882352941176471" />
    </g>
  </defs>
  <g transform="matrix(1 0 0 1 -15 -281 )">
    <use xlink:href="#widget556" filter="url(#filter555)" />
    <use xlink:href="#widget556" />
  </g>
</svg>