<?xml version="1.0" encoding="utf-8"?>
<svg version="1.1" xmlns:xlink="http://www.w3.org/1999/xlink" width="1190px" height="224px" xmlns="http://www.w3.org/2000/svg">
  <defs>
    <filter x="15px" y="50px" width="1190px" height="224px" filterUnits="userSpaceOnUse" id="filter231">
      <feOffset dx="0" dy="0" in="SourceAlpha" result="shadowOffsetInner" />
      <feGaussianBlur stdDeviation="2.5" in="shadowOffsetInner" result="shadowGaussian" />
      <feComposite in2="shadowGaussian" operator="atop" in="SourceAlpha" result="shadowComposite" />
      <feColorMatrix type="matrix" values="0 0 0 0 0.8941176470588235  0 0 0 0 0.8941176470588235  0 0 0 0 0.8941176470588235  0 0 0 1 0  " in="shadowComposite" />
    </filter>
    <g id="widget232">
      <path d="M 21 67  A 11 11 0 0 1 32 56 L 1188 56  A 11 11 0 0 1 1199 67 L 1199 257  A 11 11 0 0 1 1188 268 L 32 268  A 11 11 0 0 1 21 257 L 21 67  Z " fill-rule="nonzero" fill="#ffffff" stroke="none" />
      <path d="M 20.5 67  A 11.5 11.5 0 0 1 32 55.5 L 1188 55.5  A 11.5 11.5 0 0 1 1199.5 67 L 1199.5 257  A 11.5 11.5 0 0 1 1188 268.5 L 32 268.5  A 11.5 11.5 0 0 1 20.5 257 L 20.5 67  Z " stroke-width="1" stroke="#f2f2f2" fill="none" stroke-opacity="0.9882352941176471" />
    </g>
  </defs>
  <g transform="matrix(1 0 0 1 -15 -50 )">
    <use xlink:href="#widget232" filter="url(#filter231)" />
    <use xlink:href="#widget232" />
  </g>
</svg>