<?xml version="1.0" encoding="utf-8"?>
<svg version="1.1" xmlns:xlink="http://www.w3.org/1999/xlink" width="18px" height="18px" xmlns="http://www.w3.org/2000/svg">
  <g transform="matrix(1 0 0 1 -328 -1151 )">
    <path d="M 18 9  C 18 4.027500000000003  13.972499999999997 0  9 0  C 4.027500000000003 0  0 4.027500000000003  0 9  C 0 13.972499999999997  4.027500000000003 18  9 18  C 13.972499999999997 18  18 13.972499999999997  18 9  Z M 6.299999999999983 5.400000000000006  C 6.299999999999983 3.910500000000013  7.5105000000000075 2.700000000000017  9 2.700000000000017  C 10.489499999999992 2.700000000000017  11.700000000000017 3.910500000000013  11.700000000000017 5.400000000000006  C 11.700000000000017 6.8940000000000055  10.489499999999992 8.099999999999994  9 8.099999999999994  C 7.5105000000000075 8.099999999999994  6.299999999999983 6.8940000000000055  6.299999999999983 5.400000000000006  Z M 14.400000000000006 12.581999999999994  C 13.234499999999997 14.328000000000003  11.254500000000007 15.480000000000018  9 15.480000000000018  C 6.745499999999993 15.480000000000018  4.765500000000003 14.328000000000003  3.5999999999999943 12.581999999999994  C 3.6225000000000023 10.795500000000004  7.204499999999996 9.810000000000002  9 9.810000000000002  C 10.795500000000004 9.810000000000002  14.37299999999999 10.795500000000004  14.400000000000006 12.581999999999994  Z " fill-rule="nonzero" fill="#666ee8" stroke="none" transform="matrix(1 0 0 1 328 1151 )" />
  </g>
</svg>