<?xml version="1.0" encoding="utf-8"?>
<svg version="1.1" xmlns:xlink="http://www.w3.org/1999/xlink" width="22px" height="18px" xmlns="http://www.w3.org/2000/svg">
  <g transform="matrix(1 0 0 1 -260 -1152 )">
    <path d="M 4.736842105263179 7.64621052631577  C 5.889422758014632 7.811314612258457  6.97781706601819 8.278376313801118  7.89157894736843 9  L 9.947368421052602 9  C 12.301845512436557 9  14.21052631578948 10.908680803352922  14.21052631578948 13.263157894736821  L 7.5779999999999745 13.263157894736821  L 7.578947368421041 14.21052631578948  L 15.157894736842081 14.21052631578948  L 15.157894736842081 13.263157894736821  C 15.154907587222398 12.255122907185978  14.863664458691687 11.268972359113718  14.318526315789484 10.42105263157896  L 17.05263157894734 10.42105263157896  C 18.88039609705686 10.420548414433597  20.5453742181939 11.471667241573016  21.33094736842105 13.122000000000014  C 19.090421052631598 16.078736842105286  15.462947368421055 18  11.368421052631561 18  C 8.752736842105264 18  6.536842105263133 17.44105263157894  4.736842105263179 16.46052631578948  L 4.736842105263179 7.64621052631577  Z M 3.7894736842105203 7.578947368421041  L 3.7894736842105203 16.10526315789474  C 3.7894736842105203 16.62848028931336  3.3653223945765376 17.05263157894734  2.8421052631579187 17.05263157894734  L 0.9473684210526585 17.05263157894734  C 0.42415128963398274 17.05263157894734  0 16.62848028931336  0 16.10526315789474  L 0 7.578947368421041  C 0 7.055730237002422  0.42415128963398274 6.631578947368439  0.9473684210526585 6.631578947368439  L 2.8421052631579187 6.631578947368439  C 3.3653223945765376 6.631578947368439  3.7894736842105203 7.055730237002422  3.7894736842105203 7.578947368421041  Z M 16.10526315789474 2.8421052631579187  C 17.674914552150653 2.8421052631579187  18.9473684210526 4.114559132059867  18.9473684210526 5.6842105263157805  C 18.9473684210526 7.253861920571751  17.674914552150653 8.5263157894737  16.10526315789474 8.5263157894737  C 14.53561176363877 8.5263157894737  13.263157894736821 7.253861920571751  13.263157894736821 5.6842105263157805  C 13.263157894736821 4.114559132059867  14.53561176363877 2.8421052631579187  16.10526315789474 2.8421052631579187  Z M 9.4736842105263 0  C 11.04333560478227 0  12.31578947368422 1.2724538689019482  12.31578947368422 2.8421052631579187  C 12.31578947368422 4.411756657413832  11.04333560478227 5.6842105263157805  9.4736842105263 5.6842105263157805  C 7.904032816270387 5.6842105263157805  6.631578947368439 4.411756657413832  6.631578947368439 2.8421052631579187  C 6.631578947368439 1.2724538689019482  7.904032816270387 0  9.4736842105263 0  Z " fill-rule="nonzero" fill="#666ee8" stroke="none" transform="matrix(1 0 0 1 260 1152 )" />
  </g>
</svg>