<?xml version="1.0" encoding="utf-8"?>
<svg version="1.1" xmlns:xlink="http://www.w3.org/1999/xlink" width="20px" height="18px" xmlns="http://www.w3.org/2000/svg">
  <g transform="matrix(1 0 0 1 -188 -1152 )">
    <path d="M 18.000000080630798 16.19999999999999  L 18.9000000537539 16.19999999999999  L 18.9000000537539 18  L 0.9000005912927804 18  L 0.9000005912927804 16.19999999999999  L 1.800000564415825 16.19999999999999  L 1.800000564415825 10.117799999999988  C 0.6747135549771883 9.366709931404557  -0.0007459154504090293 8.102925224493845  0 6.75  C 0 6.00569999999999  0.20160061214932057 5.288400000000024  0.5697006011566259 4.6773000000000025  L 3.010500528266334 0.44999999999998863  C 3.171265954703074 0.17154610475597565  3.4683696520137346 0  3.7899005049908965 0  L 16.011000140028898 0  C 16.33253099300606 0  16.62963469031672 0.17154610475597565  16.79040011675346 0.44999999999998863  L 19.22220004413191 4.663799999999981  C 20.33753356630632 6.516330438440093  19.79924692521979 8.91840491737895  18.000000080630798 10.117799999999988  L 18.000000080630798 16.19999999999999  Z M 4.311000489429148 2  L 4.310100489456033 1.8000000000000114  L 2.120400554847663 5.591700000000003  C 2.01185357275358 5.859893684243161  1.9560514469089298 6.1465055904546375  1.9560514469089298 6.435832914247953  C 1.9560514469089298 7.678473601367216  2.9634107297065952 8.685832914247953  4.206051379716598 8.685832914247953  C 4.999444850071598 8.685832914247953  5.734194037037412 8.267977317890825  6.139800434815186 7.586099999999988  C 6.441300425811448 6.83280000000002  7.50780039396227 6.83280000000002  7.810200384931591 7.586099999999988  C 8.151413351992005 8.441293027642132  8.979249889595621 9.002291892579592  9.90000032252334 9.002291892579592  C 10.820750755451002 9.002291892579592  11.648587293054618 8.441293027642075  11.98980026011509 7.586099999999988  C 12.291300251111295 6.83280000000002  13.357800219262117 6.83280000000002  13.660200210231437 7.586099999999988  C 14.004819995313142 8.434398015848217  14.829124325103408 8.989254330589347  15.744751037788205 8.989254330589347  C 16.98739168779815 8.989254330589347  17.994750970595817 7.981895017708666  17.994750970595817 6.739254330589347  C 17.994750970595817 6.329736339025146  17.882985063570743 5.927983744823905  17.67150009044093 5.57729999999998  L 15.489000155617532 2  L 4.311000489429148 2  Z " fill-rule="nonzero" fill="#666ee8" stroke="none" transform="matrix(1 0 0 1 188 1152 )" />
  </g>
</svg>