<?xml version="1.0" encoding="utf-8"?>
<svg version="1.1" xmlns:xlink="http://www.w3.org/1999/xlink" width="16px" height="19px" xmlns="http://www.w3.org/2000/svg">
  <g transform="matrix(1 0 0 1 -341 -18 )">
    <path d="M 5.9076923076923435 17.051282051282044  C 5.9076923076923435 18.127948717948726  6.7889230769230835 19  7.876923076923134 19  C 8.964923076923071 19  9.84615384615384 18.127948717948726  9.84615384615384 17.051282051282044  L 5.9076923076923435 17.051282051282044  Z M 15.753846153846183 15.10256410256409  L 13.784615384615392 13.15384615384616  L 13.784615384615392 8.28205128205127  C 13.784615384615392 5.285897435897425  12.174769230769243 2.7866666666666617  9.353846153846177 2.1241025641025715  L 9.353846153846177 1.461538461538453  C 9.353846153846177 0.6528205128205116  8.694153846153853 0  7.876923076923134 0  C 7.059692307692302 0  6.400000000000006 0.6528205128205116  6.400000000000006 1.461538461538453  L 6.400000000000006 2.1241025641025715  C 3.57907692307694 2.7866666666666617  1.9692307692307907 5.285897435897425  1.9692307692307907 8.28205128205127  L 1.9692307692307907 13.15384615384616  L 0 15.10256410256409  L 0 16  L 15.753846153846183 16  L 15.753846153846183 15.10256410256409  Z M 11.815384615384602 8.28205128205127  L 11.815384615384602 14.128205128205138  L 3.938461538461553 14.128205128205138  L 3.938461538461553 8.28205128205127  C 3.938461538461553 5.860769230769222  5.430153846153843 3.8974358974358836  7.876923076923134 3.8974358974358836  C 10.32369230769234 3.8974358974358836  11.815384615384602 5.860769230769222  11.815384615384602 8.28205128205127  Z " fill-rule="nonzero" fill="#666ee8" stroke="none" fill-opacity="0.8980392156862745" transform="matrix(1 0 0 1 341 18 )" />
  </g>
</svg>