<?xml version="1.0" encoding="utf-8"?>
<svg version="1.1" xmlns:xlink="http://www.w3.org/1999/xlink" width="29px" height="30px" xmlns="http://www.w3.org/2000/svg">
  <g transform="matrix(1 0 0 1 -93 -604 )">
    <path d="M 3.2222222222222143 3.3333333333333712  L 3.2222222222222143 13.5  L 6.444444444444443 10.166666666666742  L 15.305555555555543 19.33333333333337  L 20.94444444444443 13.5  L 25.77777777777777 18.5  L 25.77777777777777 3.3333333333333712  L 3.2222222222222143 3.3333333333333712  Z M 0 1.6666666666666288  C 0 0.7461920836153695  0.7213190141615087 0  1.6111111111111143 0  L 27.388888888888886 0  C 28.27868098583849 0  29 0.7461920836153695  29 1.6666666666666288  L 29 28.33333333333337  C 29 29.25380791638463  28.27868098583849 30  27.388888888888886 30  L 1.6111111111111143 30  C 0.7213190141615087 30  0 29.25380791638463  0 28.33333333333337  L 0 1.6666666666666288  Z M 20.1388888888889 11.666666666666629  C 18.804200743464477 11.666666666666629  17.72222222222223 10.547378541243688  17.72222222222223 9.166666666666629  C 17.72222222222223 7.785954792089683  18.804200743464477 6.666666666666629  20.1388888888889 6.666666666666629  C 21.47357703431331 6.666666666666629  22.55555555555557 7.785954792089683  22.55555555555557 9.166666666666629  C 22.55555555555557 10.547378541243688  21.47357703431331 11.666666666666629  20.1388888888889 11.666666666666629  Z " fill-rule="nonzero" fill="#666ee8" stroke="none" transform="matrix(1 0 0 1 93 604 )" />
  </g>
</svg>