<?xml version="1.0" encoding="utf-8"?>
<svg version="1.1" xmlns:xlink="http://www.w3.org/1999/xlink" width="335px" height="148px" xmlns="http://www.w3.org/2000/svg">
  <g transform="matrix(1 0 0 1 -491 -111 )">
    <path d="M 492 123  A 11 11 0 0 1 503 112 L 814 112  A 11 11 0 0 1 825 123 L 825 247  A 11 11 0 0 1 814 258 L 503 258  A 11 11 0 0 1 492 247 L 492 123  Z " fill-rule="nonzero" fill="#ffffff" stroke="none" />
    <path d="M 491.5 123  A 11.5 11.5 0 0 1 503 111.5 L 814 111.5  A 11.5 11.5 0 0 1 825.5 123 L 825.5 247  A 11.5 11.5 0 0 1 814 258.5 L 503 258.5  A 11.5 11.5 0 0 1 491.5 247 L 491.5 123  Z " stroke-width="1" stroke="#f2f2f2" fill="none" stroke-opacity="0.9882352941176471" />
  </g>
</svg>