<?xml version="1.0" encoding="utf-8"?>
<svg version="1.1" xmlns:xlink="http://www.w3.org/1999/xlink" width="25px" height="26px" xmlns="http://www.w3.org/2000/svg">
  <g transform="matrix(1 0 0 1 -258 -581 )">
    <path d="M 2.7777777777778283 3  L 2.7777777777778283 11.700000000000045  L 5.555555555555543 8.811111111111131  L 13.194444444444455 16.75555555555559  L 14.305555555743354 15.599999999804709  L 18.055555555555543 11.700000000000045  L 22 16.033333333333417  L 22 3  L 2.7777777777778283 3  Z M 0 1.444444444444457  C 0 0.6466998057999263  0.6218267363461223 0  1.3888888888889142 0  L 23.611111111111086 0  C 24.378173263653878 0  25 0.6466998057999263  25 1.444444444444457  L 25 24.555555555555543  C 25 25.353300194200074  24.378173263653878 26  23.611111111111086 26  L 1.3888888888889142 26  C 0.6218267363461223 26  0 25.353300194200074  0 24.555555555555543  L 0 1.444444444444457  Z M 17.361111111111086 10.111111111111086  C 16.210517882296983 10.111111111111086  15.277777777777828 9.141061402411196  15.277777777777828 7.944444444444457  C 15.277777777777828 6.747827486477719  16.210517882296983 5.777777777777828  17.361111111111086 5.777777777777828  C 18.511704339925245 5.777777777777828  19.444444444444457 6.747827486477719  19.444444444444457 7.944444444444457  C 19.444444444444457 9.141061402411196  18.511704339925245 10.111111111111086  17.361111111111086 10.111111111111086  Z " fill-rule="nonzero" fill="#ffc71c" stroke="none" transform="matrix(1 0 0 1 258 581 )" />
  </g>
</svg>