<?xml version="1.0" encoding="utf-8"?>
<svg version="1.1" xmlns:xlink="http://www.w3.org/1999/xlink" width="335px" height="193px" xmlns="http://www.w3.org/2000/svg">
  <g transform="matrix(1 0 0 1 -491 -281 )">
    <path d="M 492 293  A 11 11 0 0 1 503 282 L 814 282  A 11 11 0 0 1 825 293 L 825 462  A 11 11 0 0 1 814 473 L 503 473  A 11 11 0 0 1 492 462 L 492 293  Z " fill-rule="nonzero" fill="#ffffff" stroke="none" />
    <path d="M 491.5 293  A 11.5 11.5 0 0 1 503 281.5 L 814 281.5  A 11.5 11.5 0 0 1 825.5 293 L 825.5 462  A 11.5 11.5 0 0 1 814 473.5 L 503 473.5  A 11.5 11.5 0 0 1 491.5 462 L 491.5 293  Z " stroke-width="1" stroke="#f2f2f2" fill="none" stroke-opacity="0.9882352941176471" />
  </g>
</svg>