<?xml version="1.0" encoding="utf-8"?>
<svg version="1.1" xmlns:xlink="http://www.w3.org/1999/xlink" width="80px" height="32px" xmlns="http://www.w3.org/2000/svg">
  <g transform="matrix(1 0 0 1 -726 -422 )">
    <path d="M 727 438  A 15 15 0 0 1 742 423 L 790 423  A 15 15 0 0 1 805 438 A 15 15 0 0 1 790 453 L 742 453  A 15 15 0 0 1 727 438 Z " fill-rule="nonzero" fill="#f68c95" stroke="none" fill-opacity="0" />
    <path d="M 726.5 438  A 15.5 15.5 0 0 1 742 422.5 L 790 422.5  A 15.5 15.5 0 0 1 805.5 438 A 15.5 15.5 0 0 1 790 453.5 L 742 453.5  A 15.5 15.5 0 0 1 726.5 438 Z " stroke-width="1" stroke="#f2f2f2" fill="none" stroke-opacity="0.9882352941176471" />
  </g>
</svg>