<?xml version="1.0" encoding="utf-8"?>
<svg version="1.1" xmlns:xlink="http://www.w3.org/1999/xlink" width="1190px" height="354px" xmlns="http://www.w3.org/2000/svg">
  <defs>
    <filter x="15px" y="597px" width="1190px" height="354px" filterUnits="userSpaceOnUse" id="filter482">
      <feOffset dx="0" dy="0" in="SourceAlpha" result="shadowOffsetInner" />
      <feGaussianBlur stdDeviation="2.5" in="shadowOffsetInner" result="shadowGaussian" />
      <feComposite in2="shadowGaussian" operator="atop" in="SourceAlpha" result="shadowComposite" />
      <feColorMatrix type="matrix" values="0 0 0 0 0.8941176470588235  0 0 0 0 0.8941176470588235  0 0 0 0 0.8941176470588235  0 0 0 1 0  " in="shadowComposite" />
    </filter>
    <g id="widget483">
      <path d="M 21 614  A 11 11 0 0 1 32 603 L 1188 603  A 11 11 0 0 1 1199 614 L 1199 934  A 11 11 0 0 1 1188 945 L 32 945  A 11 11 0 0 1 21 934 L 21 614  Z " fill-rule="nonzero" fill="#ffffff" stroke="none" />
      <path d="M 20.5 614  A 11.5 11.5 0 0 1 32 602.5 L 1188 602.5  A 11.5 11.5 0 0 1 1199.5 614 L 1199.5 934  A 11.5 11.5 0 0 1 1188 945.5 L 32 945.5  A 11.5 11.5 0 0 1 20.5 934 L 20.5 614  Z " stroke-width="1" stroke="#f2f2f2" fill="none" stroke-opacity="0.9882352941176471" />
    </g>
  </defs>
  <g transform="matrix(1 0 0 1 -15 -597 )">
    <use xlink:href="#widget483" filter="url(#filter482)" />
    <use xlink:href="#widget483" />
  </g>
</svg>