<?xml version="1.0" encoding="utf-8"?>
<svg version="1.1" xmlns:xlink="http://www.w3.org/1999/xlink" width="16px" height="16px" xmlns="http://www.w3.org/2000/svg">
  <g transform="matrix(1 0 0 1 -284 -21 )">
    <path d="M 0 6.85714285714289  C 0 3.0720000000000027  3.072000000000017 0  6.857142857142819 0  C 10.64228571428572 0  13.714285714285722 3.0720000000000027  13.714285714285722 6.85714285714289  C 13.714285714285722 10.64228571428572  10.64228571428572 13.714285714285722  6.857142857142819 13.714285714285722  C 3.072000000000017 13.714285714285722  0 10.64228571428572  0 6.85714285714289  Z M 1.5238095238095326 6.85714285714289  C 1.5238095238095326 9.803428571428583  3.9100952380952805 12.190476190476204  6.857142857142819 12.190476190476204  C 9.803428571428512 12.190476190476204  12.190476190476247 9.803428571428583  12.190476190476247 6.85714285714289  C 12.190476190476247 3.9100952380952094  9.803428571428512 1.5238095238095184  6.857142857142819 1.5238095238095184  C 3.9100952380952805 1.5238095238095184  1.5238095238095326 3.9100952380952094  1.5238095238095326 6.85714285714289  Z M 12.244571428571462 13.321904761904761  L 13.32190476190479 12.244571428571419  L 15.477333333333362 14.399238095238104  L 14.399238095238104 15.47733333333332  L 12.244571428571462 13.321904761904761  Z " fill-rule="nonzero" fill="#555555" stroke="none" transform="matrix(1 0 0 1 284 21 )" />
  </g>
</svg>