<?xml version="1.0" encoding="utf-8"?>
<svg version="1.1" xmlns:xlink="http://www.w3.org/1999/xlink" width="35px" height="32px" xmlns="http://www.w3.org/2000/svg">
  <defs>
    <linearGradient gradientUnits="userSpaceOnUse" x1="0.7499999999999983" y1="-0.7499999999999982" x2="34.25" y2="32.75" id="LinearGradient34">
      <stop id="Stop35" stop-color="#666ee8" offset="0" />
      <stop id="Stop36" stop-color="#3399ff" offset="0.98" />
      <stop id="Stop37" stop-color="#3399ff" offset="1" />
    </linearGradient>
  </defs>
  <g transform="matrix(1 0 0 1 -226 -484 )">
    <path d="M 22.60127655406861 0  L 32.98566093845291 0  C 33.941517127099026 0.038275229597282134  34.71639166918364 0.8326054961152192  34.716391669183665 1.812461537116926  L 34.71639166918365 14.23176568975444  C 34.716391669183636 15.211621730756127  33.94151712709905 16.00595199727408  32.985660938452895 16.005951997274057  L 29 16.005951997274046  L 29 30.19944245743119  C 29.5241994769915 31.17929849843287  28.749324934906888 31.973628764950867  27.793468746260828 32  L 7.024699977491903 32  C 6.0688437888458555 31.973628764950842  5.293969246761224 31.179298498432907  5.293969246761228 30.199442457431203  L 5.292238516030458 16.004177810966564  L 1.8325077852998084 16.0059519972741  C 0.8766515966536745 16.00595199727408  0.10177705456903864 15.211621730756136  0.10177705456903038 14.231765689754438  L 0.10177705456906584 1.8124615371169335  C 0.10177705456908485 0.8326054961152286  0.876651596653687 0.038275229597314636  1.8325077852998233 0  L 12.216892169684167 0  C 12.216892169684135 2.977843352602429  14.541515795938093 5.360834152156228  17.40908436187637 5.3608341521562055  C 20.276652927814627 5.360834152156217  22.601276554068512 2.9778433526024255  22.60127655406861 0.038275229597286575  C 22.60127655406861 0.038275229597286575  22.60127655406861 0.038275229597286575  22.60127655406861 0  Z " fill-rule="nonzero" fill="url(#LinearGradient34)" stroke="none" transform="matrix(1 0 0 1 226 484 )" />
  </g>
</svg>