<?xml version="1.0" encoding="utf-8"?>
<svg version="1.1" xmlns:xlink="http://www.w3.org/1999/xlink" width="16px" height="17px" xmlns="http://www.w3.org/2000/svg">
  <g transform="matrix(1 0 0 1 -989 -183 )">
    <path d="M 14.4 6.476190476190476  L 14.4 12.142857142857142  L 16 12.142857142857142  L 16 13.761904761904763  L 0 13.761904761904763  L 0 12.142857142857142  L 1.6 12.142857142857142  L 1.6 6.476190476190476  C 1.6 2.899489239191052  4.465377601082922 0  8 0  C 11.534622398917076 0  14.4 2.899489239191052  14.4 6.476190476190476  Z M 3.2 12.142857142857142  L 12.8 12.142857142857142  L 12.8 6.476190476190476  C 12.8 3.7936645484409075  10.650966799187808 1.6190476190476182  8 1.6190476190476182  C 5.349033200812191 1.6190476190476182  3.2 3.7936645484409075  3.2 6.476190476190476  L 3.2 12.142857142857142  Z M 5.6 17  L 5.6 15.380952380952381  L 10.4 15.380952380952381  L 10.4 17  L 5.6 17  Z " fill-rule="nonzero" fill="#000000" stroke="none" transform="matrix(1 0 0 1 989 183 )" />
  </g>
</svg>