<?xml version="1.0" encoding="utf-8"?>
<svg version="1.1" xmlns:xlink="http://www.w3.org/1999/xlink" width="16px" height="16px" xmlns="http://www.w3.org/2000/svg">
  <g transform="matrix(1 0 0 1 -989 -264 )">
    <path d="M 15.2 12.8  L 3.564 12.8  L 0 15.6  L 0 0.8  C 0 0.35817220013536544  0.35817220013536544 0  0.8 0  L 15.2 0  C 15.641827799864634 0  16 0.35817220013536544  16 0.8  L 16 12  C 16 12.441827799864635  15.641827799864634 12.8  15.2 12.8  Z M 1.6 12.307999999999998  L 3.0103999999999997 11  L 14.4 11  L 14.4 1.6  L 1.6 1.6  L 1.6 12.307999999999998  Z M 7.2 7.2  L 7.2 5.6  L 8.8 5.6  L 8.8 7.2  L 7.2 7.2  Z M 4 7.2  L 4 5.6  L 5.6 5.6  L 5.6 7.2  L 4 7.2  Z M 10.4 7.2  L 10.4 5.6  L 12 5.6  L 12 7.2  L 10.4 7.2  Z " fill-rule="nonzero" fill="#333333" stroke="none" transform="matrix(1 0 0 1 989 264 )" />
  </g>
</svg>