<?xml version="1.0" encoding="utf-8"?>
<svg version="1.1" xmlns:xlink="http://www.w3.org/1999/xlink" width="17px" height="16px" xmlns="http://www.w3.org/2000/svg">
  <g transform="matrix(1 0 0 1 -989 -364 )">
    <path d="M 8.5 1.6842105263157894  C 9.350000000000001 0.8421052631578947  10.744 0  12.325 0  C 14.9073 0  17 2.1052631578947367  17 5.052631578947368  C 17 10.947368421052632  10.625 14.31578947368421  8.5 15.578947368421053  C 6.375 14.31578947368421  0 10.947368421052632  0 5.052631578947368  C 0 2.1052631578947367  2.125 0  4.675000000000001 0  C 6.256 0  7.65 0.8421052631578947  8.5 1.6842105263157894  Z M 8.499999999999998 13.621052631578944  C 8.788149999999998 13.45094736842105  9.03975 13.298526315789472  9.2939 13.140210526315789  C 10.042750000000002 12.671999999999999  10.7185 12.206315789473683  11.350900000000001 11.70778947368421  C 13.884750000000002 9.712  15.3 7.530947368421052  15.3 5.052631578947368  C 15.3 3.065263157894737  13.99355 1.6842105263157894  12.325 1.6842105263157894  C 11.410400000000001 1.6842105263157894  10.421 2.16421052631579  9.7019 2.8749473684210525  L 8.5 4.0656842105263165  L 7.2981 2.874947368421053  C 6.579000000000001 2.16421052631579  5.589600000000001 1.6842105263157894  4.675000000000001 1.6842105263157894  C 3.026 1.6842105263157894  1.7000000000000002 3.078736842105263  1.7000000000000002 5.052631578947368  C 1.7000000000000002 7.53178947368421  3.1161000000000003 9.712000000000002  5.64825 11.70778947368421  C 6.281499999999999 12.206315789473683  6.957249999999999 12.671999999999999  7.706099999999998 13.13936842105263  C 7.960249999999999 13.298526315789472  8.21185 13.450947368421051  8.499999999999998 13.621052631578944  Z " fill-rule="nonzero" fill="#000000" stroke="none" transform="matrix(1 0 0 1 989 364 )" />
  </g>
</svg>