<?xml version="1.0" encoding="utf-8"?>
<svg version="1.1" xmlns:xlink="http://www.w3.org/1999/xlink" width="18px" height="16px" xmlns="http://www.w3.org/2000/svg">
  <g transform="matrix(1 0 0 1 -988 -444 )">
    <path d="M 1.7142857142857142 0  L 10.433142857142858 0  C 10.887428571428572 0  11.323714285714287 0.17684210526315786  11.645142857142858 0.4934736842105262  L 15.783428571428573 4.559157894736842  C 16.104857142857146 4.8749473684210525  16.285714285714285 5.303578947368421  16.285714285714285 5.749894736842105  L 16.285714285714285 11.789473684210526  L 18 11.789473684210526  L 18 13.473684210526315  L 11.034857142857144 13.473684210526315  C 10.653428571428572 14.927157894736842  9.312000000000001 16  7.7142857142857135 16  C 6.116571428571428 16  4.774285714285715 14.927157894736842  4.393714285714285 13.473684210526315  L 0.8571428571428571 13.473684210526315  C 0.384 13.473684210526315  0 13.096421052631579  0 12.631578947368421  L 0 1.6842105263157894  C 0 0.7536842105263158  0.7671428571428571 0  1.7142857142857142 0  Z M 9.428571428571429 12.631578947368421  C 9.428571428571429 11.701052631578946  8.661428571428573 10.947368421052632  7.7142857142857135 10.947368421052632  C 6.767142857142857 10.947368421052632  6 11.701052631578946  6 12.631578947368421  C 6 13.562105263157894  6.767142857142857 14.31578947368421  7.7142857142857135 14.31578947368421  C 8.661428571428573 14.31578947368421  9.428571428571429 13.562105263157894  9.428571428571429 12.631578947368421  Z M 14.571428571428571 5.749894736842105  L 10.433142857142858 1.6842105263157894  L 2 1.6842105263157894  L 2 11.789473684210526  L 4.393714285714285 11.789473684210526  C 4.774285714285714 10.336842105263159  6.116571428571428 9.263157894736842  7.7142857142857135 9.263157894736842  C 9.312000000000001 9.263157894736842  10.654285714285715 10.336842105263159  11.034857142857144 11.789473684210526  L 14.571428571428571 11.789473684210526  L 14.571428571428571 5.749894736842105  Z M 3.4285714285714284 3.3684210526315788  L 10.285714285714285 3.3684210526315788  L 10.285714285714285 8.421052631578947  L 3.4285714285714284 8.421052631578947  L 3.4285714285714284 3.3684210526315788  Z M 8.571428571428571 6.7368421052631575  L 8.571428571428571 5.052631578947368  L 5.142857142857142 5.052631578947368  L 5.142857142857142 6.7368421052631575  L 8.571428571428571 6.7368421052631575  Z " fill-rule="nonzero" fill="#333333" stroke="none" transform="matrix(1 0 0 1 988 444 )" />
  </g>
</svg>