<?xml version="1.0" encoding="utf-8"?>
<svg version="1.1" xmlns:xlink="http://www.w3.org/1999/xlink" width="52px" height="52px" xmlns="http://www.w3.org/2000/svg">
  <g transform="matrix(1 0 0 1 -999 -1132 )">
    <path d="M 1025 1132  C 1039.56 1132  1051 1143.44  1051 1158  C 1051 1172.56  1039.56 1184  1025 1184  C 1010.44 1184  999 1172.56  999 1158  C 999 1143.44  1010.44 1132  1025 1132  Z " fill-rule="nonzero" fill="#ffffff" stroke="none" />
    <path d="M 1025 1132.5  C 1039.28 1132.5  1050.5 1143.72  1050.5 1158  C 1050.5 1172.28  1039.28 1183.5  1025 1183.5  C 1010.72 1183.5  999.5 1172.28  999.5 1158  C 999.5 1143.72  1010.72 1132.5  1025 1132.5  Z " stroke-width="1" stroke="#797979" fill="none" />
  </g>
</svg>