<?xml version="1.0" encoding="utf-8"?>
<svg version="1.1" xmlns:xlink="http://www.w3.org/1999/xlink" width="30px" height="30px" xmlns="http://www.w3.org/2000/svg">
  <g transform="matrix(1 0 0 1 -1020 -3294 )">
    <path d="M 1035 3294  C 1043.4 3294  1050 3300.6  1050 3309  C 1050 3317.4  1043.4 3324  1035 3324  C 1026.6 3324  1020 3317.4  1020 3309  C 1020 3300.6  1026.6 3294  1035 3294  Z " fill-rule="nonzero" fill="#ffffff" stroke="none" />
    <path d="M 1035 3294.5  C 1043.12 3294.5  1049.5 3300.88  1049.5 3309  C 1049.5 3317.12  1043.12 3323.5  1035 3323.5  C 1026.88 3323.5  1020.5 3317.12  1020.5 3309  C 1020.5 3300.88  1026.88 3294.5  1035 3294.5  Z " stroke-width="1" stroke="#797979" fill="none" />
  </g>
</svg>