<?xml version="1.0" encoding="utf-8"?>
<svg version="1.1" xmlns:xlink="http://www.w3.org/1999/xlink" width="51px" height="53px" xmlns="http://www.w3.org/2000/svg">
  <g transform="matrix(1 0 0 1 -962 -3268 )">
    <path d="M 962 3268  L 1013 3268  L 1013 3321  L 962 3321  L 962 3268  " fill-rule="nonzero" fill="#cccccc" stroke="none" />
    <path d="M 966 3272  L 1009 3272  L 1009 3317  L 966 3317  L 966 3272  " fill-rule="nonzero" fill="#ffffff" stroke="none" />
    <path d="M 992.345 3283.6  C 990.203 3283.6  988.52 3281.917  988.52 3279.7749999999996  C 988.52 3277.633  990.203 3275.95  992.345 3275.95  C 994.487 3275.95  996.17 3277.633  996.17 3279.7749999999996  C 996.17 3281.917  994.487 3283.6  992.345 3283.6  " fill-rule="nonzero" fill="#cccccc" stroke="none" />
    <path d="M 968 3316  L 968 3292.9  L 978 3282.4  L 992 3290.8  L 1000 3288.7  L 1008 3290.8  L 1008 3316  L 968 3316  " fill-rule="nonzero" fill="#169bd5" stroke="none" />
  </g>
</svg>