<?xml version="1.0" encoding="utf-8"?>
<svg version="1.1" xmlns:xlink="http://www.w3.org/1999/xlink" width="16px" height="14px" xmlns="http://www.w3.org/2000/svg">
  <g transform="matrix(1 0 0 1 -1605 -3217 )">
    <path d="M 14.857739164546423 3.6048695652173883  C 15.719832708256085 5.036777150485097  15.30376573930031 6.893453076234916  13.913043540584228 7.820521739130448  L 13.913043540584228 12.521739130434781  L 14.608695693722808 12.521739130434781  L 14.608695693722808 14  L 0.6956526309509524 14  L 0.6956526309509524 12.521739130434781  L 1.3913047840895552 12.521739130434781  L 1.3913047840895552 7.820521739130448  C 0.521517723653872 7.239969029104967  -0.0005765530051462517 6.263130608304412  0 5.217391304347807  C 0 4.642086956521755  0.15582656011540758 4.087652173913057  0.4403482907490923 3.6153043478260933  L 2.326956930060958 0.34782608695652684  C 2.4512200616062563 0.13259602299977757  2.680865431508187 0  2.929391694678975 0  L 12.375652282147927 0  C 12.624178545318715 0  12.85382391522066 0.13259602299977757  12.978087046765951 0.34782608695652684  L 14.857739164546423 3.6048695652173883  Z M 12.521739234307036 8.328347826086958  C 11.552210017958034 8.437112017777686  10.587459271064988 8.08722906978917  9.9130436600373 7.3822608695652185  C 9.322927533601668 7.999480689429219  8.506104676353406 8.348578222536819  7.65217416233688 8.348521739130419  C 6.798450141801941 8.348941429590443  5.981657831175693 8.000359593076432  5.391304664636455 7.383652173913056  C 4.716757424994276 8.088365681500616  3.7520248261867035 8.437984785749247  2.782609090366732 8.329043478260878  L 2.782609090366732 12.521739130434781  L 12.521739234307036 12.521739130434781  L 12.521739234307036 8.329043478260878  Z M 3.3314786391930853 1.3913043478260825  L 1.6389569506068817 4.322086956521716  C 1.5550559016452745 4.529386422603416  1.5119238236977417 4.750922195520516  1.5119238236977417 4.9745568419307595  C 1.5119238236977417 5.935052059027814  2.290559018130714 6.713687276713394  3.251054206544224 6.713687276713394  C 3.86430519812299 6.713687276713394  4.432227275004804 6.390707105616077  4.745739466523856 5.863652173913046  C 4.978782937825278 5.281391304347835  5.803130739294507 5.281391304347835  6.036869862749076 5.863652173913046  C 6.300609354196735 6.52467093924027  6.940483006450731 6.958293250303061  7.65217416233688 6.958293250303061  C 8.363865318223024 6.958293250303061  9.00373897047702 6.52467093924027  9.2674784619247 5.863652173913046  C 9.500521933226121 5.281391304347835  10.32486973469535 5.281391304347835  10.558608858149926 5.863652173913046  C 10.8249816388894 6.519341461525173  11.462125082205555 6.948215907701929  12.169855874618912 6.948215907701929  C 13.130351063032409 6.948215907701929  13.908986257465388 6.169580690016346  13.908986257465388 5.209085472919291  C 13.908986257465388 4.892549827265814  13.822597150586086 4.582016421119963  13.659130504688635 4.310956521739147  L 11.97217403332755 1.3913043478260825  L 3.332174291346219 1.3913043478260825  Z " fill-rule="nonzero" fill="#666ee8" stroke="none" transform="matrix(1 0 0 1 1605 3217 )" />
  </g>
</svg>