<?xml version="1.0" encoding="utf-8"?>
<svg version="1.1" xmlns:xlink="http://www.w3.org/1999/xlink" width="335px" height="148px" xmlns="http://www.w3.org/2000/svg">
  <g transform="matrix(1 0 0 1 -1096 -152 )">
    <path d="M 1097 164  A 11 11 0 0 1 1108 153 L 1419 153  A 11 11 0 0 1 1430 164 L 1430 288  A 11 11 0 0 1 1419 299 L 1108 299  A 11 11 0 0 1 1097 288 L 1097 164  Z " fill-rule="nonzero" fill="#ffffff" stroke="none" />
    <path d="M 1096.5 164  A 11.5 11.5 0 0 1 1108 152.5 L 1419 152.5  A 11.5 11.5 0 0 1 1430.5 164 L 1430.5 288  A 11.5 11.5 0 0 1 1419 299.5 L 1108 299.5  A 11.5 11.5 0 0 1 1096.5 288 L 1096.5 164  Z " stroke-width="1" stroke="#f2f2f2" fill="none" stroke-opacity="0.9882352941176471" />
  </g>
</svg>