<?xml version="1.0" encoding="utf-8"?>
<svg version="1.1" xmlns:xlink="http://www.w3.org/1999/xlink" width="335px" height="193px" xmlns="http://www.w3.org/2000/svg">
  <g transform="matrix(1 0 0 1 -1096 -322 )">
    <path d="M 1097 334  A 11 11 0 0 1 1108 323 L 1419 323  A 11 11 0 0 1 1430 334 L 1430 503  A 11 11 0 0 1 1419 514 L 1108 514  A 11 11 0 0 1 1097 503 L 1097 334  Z " fill-rule="nonzero" fill="#ffffff" stroke="none" />
    <path d="M 1096.5 334  A 11.5 11.5 0 0 1 1108 322.5 L 1419 322.5  A 11.5 11.5 0 0 1 1430.5 334 L 1430.5 503  A 11.5 11.5 0 0 1 1419 514.5 L 1108 514.5  A 11.5 11.5 0 0 1 1096.5 503 L 1096.5 334  Z " stroke-width="1" stroke="#f2f2f2" fill="none" stroke-opacity="0.9882352941176471" />
  </g>
</svg>