<?xml version="1.0" encoding="utf-8"?>
<svg version="1.1" xmlns:xlink="http://www.w3.org/1999/xlink" width="13px" height="13px" viewBox="950 1313  13 13" xmlns="http://www.w3.org/2000/svg">
  <path d="M 956.5 1313  C 960.14 1313  963 1315.86  963 1319.5  C 963 1323.14  960.14 1326  956.5 1326  C 952.86 1326  950 1323.14  950 1319.5  C 950 1315.86  952.86 1313  956.5 1313  Z " fill-rule="nonzero" fill="#ffffff" stroke="none" />
  <path d="M 956.5 1313.5  C 959.86 1313.5  962.5 1316.14  962.5 1319.5  C 962.5 1322.86  959.86 1325.5  956.5 1325.5  C 953.14 1325.5  950.5 1322.86  950.5 1319.5  C 950.5 1316.14  953.14 1313.5  956.5 1313.5  Z " stroke-width="1" stroke="#797979" fill="none" />
  <path d="M 956.5 1322.75  C 954.68 1322.75  953.25 1321.32  953.25 1319.5  C 953.25 1317.68  954.68 1316.25  956.5 1316.25  C 958.32 1316.25  959.75 1317.68  959.75 1319.5  C 959.75 1321.32  958.32 1322.75  956.5 1322.75  " fill-rule="nonzero" fill="#797979" stroke="none" />
</svg>