<?xml version="1.0" encoding="utf-8"?>
<svg version="1.1" xmlns:xlink="http://www.w3.org/1999/xlink" width="13px" height="13px" viewBox="950 1347  13 13" xmlns="http://www.w3.org/2000/svg">
  <path d="M 956.5 1347  C 960.14 1347  963 1349.86  963 1353.5  C 963 1357.14  960.14 1360  956.5 1360  C 952.86 1360  950 1357.14  950 1353.5  C 950 1349.86  952.86 1347  956.5 1347  Z " fill-rule="nonzero" fill="#ffffff" stroke="none" />
  <path d="M 956.5 1347.5  C 959.86 1347.5  962.5 1350.14  962.5 1353.5  C 962.5 1356.86  959.86 1359.5  956.5 1359.5  C 953.14 1359.5  950.5 1356.86  950.5 1353.5  C 950.5 1350.14  953.14 1347.5  956.5 1347.5  Z " stroke-width="1" stroke="#797979" fill="none" />
  <path d="M 956.5 1356.75  C 954.68 1356.75  953.25 1355.32  953.25 1353.5  C 953.25 1351.68  954.68 1350.25  956.5 1350.25  C 958.32 1350.25  959.75 1351.68  959.75 1353.5  C 959.75 1355.32  958.32 1356.75  956.5 1356.75  " fill-rule="nonzero" fill="#797979" stroke="none" />
</svg>