<?xml version="1.0" encoding="utf-8"?>
<svg version="1.1" xmlns:xlink="http://www.w3.org/1999/xlink" width="13px" height="13px" viewBox="950 1382  13 13" xmlns="http://www.w3.org/2000/svg">
  <path d="M 956.5 1382  C 960.14 1382  963 1384.86  963 1388.5  C 963 1392.14  960.14 1395  956.5 1395  C 952.86 1395  950 1392.14  950 1388.5  C 950 1384.86  952.86 1382  956.5 1382  Z " fill-rule="nonzero" fill="#ffffff" stroke="none" />
  <path d="M 956.5 1382.5  C 959.86 1382.5  962.5 1385.14  962.5 1388.5  C 962.5 1391.86  959.86 1394.5  956.5 1394.5  C 953.14 1394.5  950.5 1391.86  950.5 1388.5  C 950.5 1385.14  953.14 1382.5  956.5 1382.5  Z " stroke-width="1" stroke="#797979" fill="none" />
  <path d="M 956.5 1391.75  C 954.68 1391.75  953.25 1390.32  953.25 1388.5  C 953.25 1386.68  954.68 1385.25  956.5 1385.25  C 958.32 1385.25  959.75 1386.68  959.75 1388.5  C 959.75 1390.32  958.32 1391.75  956.5 1391.75  " fill-rule="nonzero" fill="#797979" stroke="none" />
</svg>