<?xml version="1.0" encoding="utf-8"?>
<svg version="1.1" xmlns:xlink="http://www.w3.org/1999/xlink" width="80px" height="32px" xmlns="http://www.w3.org/2000/svg">
  <g transform="matrix(1 0 0 1 -2438 -747 )">
    <path d="M 2439 763  A 15 15 0 0 1 2454 748 L 2502 748  A 15 15 0 0 1 2517 763 A 15 15 0 0 1 2502 778 L 2454 778  A 15 15 0 0 1 2439 763 Z " fill-rule="nonzero" fill="#f68c95" stroke="none" fill-opacity="0" />
    <path d="M 2438.5 763  A 15.5 15.5 0 0 1 2454 747.5 L 2502 747.5  A 15.5 15.5 0 0 1 2517.5 763 A 15.5 15.5 0 0 1 2502 778.5 L 2454 778.5  A 15.5 15.5 0 0 1 2438.5 763 Z " stroke-width="1" stroke="#aaaaaa" fill="none" stroke-opacity="0.9882352941176471" />
  </g>
</svg>