<?xml version="1.0" encoding="utf-8"?>
<svg version="1.1" xmlns:xlink="http://www.w3.org/1999/xlink" width="16px" height="12px" xmlns="http://www.w3.org/2000/svg">
  <g transform="matrix(1 0 0 1 -2348 -1234 )">
    <path d="M 9.466687470744272 9.441268670477621  L 5.784592689257988 9.441268670477621  C 5.606098360742886 10.693928289858514  4.533444209707068 11.624572392862865  3.2681314628576272 11.624572392862865  C 2.0028187160082096 11.624572392862865  0.9301645649723469 10.693928289858514  0.7516702364572438 9.441268670477621  L 0 9.441268670477621  L 0 0.7262514361905915  C 0 0.32515384343982984  0.3251538434398299 0  0.7262514361905914 0  L 10.893771542858758 0  C 11.294869135609542 0  11.620022979049327 0.32515384343982984  11.620022979049327 0.7262514361905915  L 11.620022979049327 2.1787543085717287  L 13.798777287621125 2.1787543085717287  L 15.97753159619283 5.124430133760779  L 15.97753159619283 9.441268670477621  L 14.49960992354504 9.441268670477621  C 14.321115595029914 10.693928289858514  13.248461443994028 11.624572392862865  11.983148697144589 11.624572392862865  C 10.717835950295239 11.624572392862865  9.6451817992594 10.693928289858514  9.466687470744272 9.441268670477621  Z M 10.167520106668189 7.298826933715372  L 10.167520106668189 1.452502872381183  L 1.4525028723811828 1.452502872381183  L 1.4525028723811828 7.298826933715372  C 1.9306194752899501 6.8107221918831105  2.5851083863113447 6.5356523791235075  3.268366554924205 6.5356523791235075  C 4.250419867657752 6.5356523791235075  5.144620648543696 7.101361017677732  5.56526475552846 7.988765798096438  L 9.686015404473801 7.988765798096438  C 9.808025645753833 7.732399041121153  9.971432218896734 7.499272330103963  10.167520106668189 7.298826933715372  Z M 11.620022979049327 3.631257180952912  L 11.620022979049327 5.810011489524686  L 14.525028723811692 5.810011489524686  L 14.525028723811692 5.603029830210358  L 13.066715839941025 3.631257180952912  L 11.620022979049327 3.631257180952912  Z M 11.983148697144589 10.167520106668212  C 12.584995635067163 10.167520106668212  13.072888977148613 9.67962676458676  13.072888977148613 9.077779826664209  C 13.072888977148613 8.475932888741681  12.584995635067163 7.988039546660253  11.983148697144589 7.988039546660253  C 11.381301759222106 7.988039546660253  10.893408417140654 8.475932888741681  10.893408417140654 9.077779826664209  C 10.893408417140654 9.67962676458676  11.381301759222106 10.167520106668212  11.983148697144589 10.167520106668212  Z M 4.357508617143526 9.078142929425395  C 4.357508617143526 8.476496540299241  3.869777851983804 7.988765775139518  3.2681314628576272 7.988765775139518  C 2.6664850737314736 7.988765775139518  2.178754308571752 8.476496540299241  2.178754308571752 9.078142929425395  C 2.1787543212504943 9.679789332543237  2.6664850826967266 10.16752008371127  3.2681314628576272 10.16752008371127  C 3.869777851983804 10.16752008371127  4.357508617143526 9.67978931855157  4.357508617143526 9.078142929425395  Z " fill-rule="nonzero" fill="#ffffff" stroke="none" transform="matrix(1 0 0 1 2348 1234 )" />
  </g>
</svg>