<?xml version="1.0" encoding="utf-8"?>
<svg version="1.1" xmlns:xlink="http://www.w3.org/1999/xlink" width="32px" height="32px" xmlns="http://www.w3.org/2000/svg">
  <g transform="matrix(1 0 0 1 -1303 -2933 )">
    <path d="M 1319 2933  C 1327.96 2933  1335 2940.04  1335 2949  C 1335 2957.96  1327.96 2965  1319 2965  C 1310.04 2965  1303 2957.96  1303 2949  C 1303 2940.04  1310.04 2933  1319 2933  Z " fill-rule="nonzero" fill="#ffffff" stroke="none" />
    <path d="M 1319 2933.5  C 1327.68 2933.5  1334.5 2940.32  1334.5 2949  C 1334.5 2957.68  1327.68 2964.5  1319 2964.5  C 1310.32 2964.5  1303.5 2957.68  1303.5 2949  C 1303.5 2940.32  1310.32 2933.5  1319 2933.5  Z " stroke-width="1" stroke="#797979" fill="none" />
  </g>
</svg>