<?xml version="1.0" encoding="utf-8"?>
<svg version="1.1" xmlns:xlink="http://www.w3.org/1999/xlink" width="20px" height="20px" xmlns="http://www.w3.org/2000/svg">
  <g transform="matrix(1 0 0 1 -20 -15 )">
    <path d="M 9 15  L 9 13  L 11.000000000000004 13  L 11.000000000000004 15  L 9 15  Z M 9 10.99999999999999  L 9 5  L 11.000000000000004 5  L 11.000000000000004 10.99999999999999  L 9 10.99999999999999  Z M 20 10  C 20 4.475000000000005  15.519999999999996 0  9.994999999999997 0  C 4.470000000000017 0  0 4.475000000000005  0 10  C 0 15.524999999999991  4.470000000000017 20  9.994999999999997 20  C 15.519999999999996 20  20 15.524999999999991  20 10  Z M 18 10  C 18 14.420000000000002  14.420000000000002 18  10 18  C 5.579999999999998 18  2.0000000000000036 14.420000000000002  2.0000000000000036 10  C 2.0000000000000036 5.579999999999998  5.579999999999998 2.0000000000000036  10 2.0000000000000036  C 14.420000000000002 2.0000000000000036  18 5.579999999999998  18 10  Z " fill-rule="nonzero" fill="#ffc71c" stroke="none" transform="matrix(1 0 0 1 20 15 )" />
  </g>
</svg>