<?xml version="1.0" encoding="utf-8"?>
<svg version="1.1" xmlns:xlink="http://www.w3.org/1999/xlink" width="1190px" height="155px" xmlns="http://www.w3.org/2000/svg">
  <defs>
    <filter x="15px" y="1333px" width="1190px" height="155px" filterUnits="userSpaceOnUse" id="filter211">
      <feOffset dx="0" dy="0" in="SourceAlpha" result="shadowOffsetInner" />
      <feGaussianBlur stdDeviation="2.5" in="shadowOffsetInner" result="shadowGaussian" />
      <feComposite in2="shadowGaussian" operator="atop" in="SourceAlpha" result="shadowComposite" />
      <feColorMatrix type="matrix" values="0 0 0 0 0.8941176470588235  0 0 0 0 0.8941176470588235  0 0 0 0 0.8941176470588235  0 0 0 1 0  " in="shadowComposite" />
    </filter>
    <g id="widget212">
      <path d="M 21 1350  A 11 11 0 0 1 32 1339 L 1188 1339  A 11 11 0 0 1 1199 1350 L 1199 1471  A 11 11 0 0 1 1188 1482 L 32 1482  A 11 11 0 0 1 21 1471 L 21 1350  Z " fill-rule="nonzero" fill="#ffffff" stroke="none" />
      <path d="M 20.5 1350  A 11.5 11.5 0 0 1 32 1338.5 L 1188 1338.5  A 11.5 11.5 0 0 1 1199.5 1350 L 1199.5 1471  A 11.5 11.5 0 0 1 1188 1482.5 L 32 1482.5  A 11.5 11.5 0 0 1 20.5 1471 L 20.5 1350  Z " stroke-width="1" stroke="#f2f2f2" fill="none" stroke-opacity="0.9882352941176471" />
    </g>
  </defs>
  <g transform="matrix(1 0 0 1 -15 -1333 )">
    <use xlink:href="#widget212" filter="url(#filter211)" />
    <use xlink:href="#widget212" />
  </g>
</svg>