<?xml version="1.0" encoding="utf-8"?>
<svg version="1.1" xmlns:xlink="http://www.w3.org/1999/xlink" width="1190px" height="341px" xmlns="http://www.w3.org/2000/svg">
  <defs>
    <filter x="15px" y="974px" width="1190px" height="341px" filterUnits="userSpaceOnUse" id="filter539">
      <feOffset dx="0" dy="0" in="SourceAlpha" result="shadowOffsetInner" />
      <feGaussianBlur stdDeviation="2.5" in="shadowOffsetInner" result="shadowGaussian" />
      <feComposite in2="shadowGaussian" operator="atop" in="SourceAlpha" result="shadowComposite" />
      <feColorMatrix type="matrix" values="0 0 0 0 0.8941176470588235  0 0 0 0 0.8941176470588235  0 0 0 0 0.8941176470588235  0 0 0 1 0  " in="shadowComposite" />
    </filter>
    <g id="widget540">
      <path d="M 21 991  A 11 11 0 0 1 32 980 L 1188 980  A 11 11 0 0 1 1199 991 L 1199 1298  A 11 11 0 0 1 1188 1309 L 32 1309  A 11 11 0 0 1 21 1298 L 21 991  Z " fill-rule="nonzero" fill="#ffffff" stroke="none" />
      <path d="M 20.5 991  A 11.5 11.5 0 0 1 32 979.5 L 1188 979.5  A 11.5 11.5 0 0 1 1199.5 991 L 1199.5 1298  A 11.5 11.5 0 0 1 1188 1309.5 L 32 1309.5  A 11.5 11.5 0 0 1 20.5 1298 L 20.5 991  Z " stroke-width="1" stroke="#f2f2f2" fill="none" stroke-opacity="0.9882352941176471" />
    </g>
  </defs>
  <g transform="matrix(1 0 0 1 -15 -974 )">
    <use xlink:href="#widget540" filter="url(#filter539)" />
    <use xlink:href="#widget540" />
  </g>
</svg>