<?xml version="1.0" encoding="utf-8"?>
<svg version="1.1" xmlns:xlink="http://www.w3.org/1999/xlink" width="1190px" height="512px" xmlns="http://www.w3.org/2000/svg">
  <defs>
    <filter x="15px" y="1508px" width="1190px" height="512px" filterUnits="userSpaceOnUse" id="filter381">
      <feOffset dx="0" dy="0" in="SourceAlpha" result="shadowOffsetInner" />
      <feGaussianBlur stdDeviation="2.5" in="shadowOffsetInner" result="shadowGaussian" />
      <feComposite in2="shadowGaussian" operator="atop" in="SourceAlpha" result="shadowComposite" />
      <feColorMatrix type="matrix" values="0 0 0 0 0.8941176470588235  0 0 0 0 0.8941176470588235  0 0 0 0 0.8941176470588235  0 0 0 1 0  " in="shadowComposite" />
    </filter>
    <g id="widget382">
      <path d="M 21 1525  A 11 11 0 0 1 32 1514 L 1188 1514  A 11 11 0 0 1 1199 1525 L 1199 2003  A 11 11 0 0 1 1188 2014 L 32 2014  A 11 11 0 0 1 21 2003 L 21 1525  Z " fill-rule="nonzero" fill="#ffffff" stroke="none" />
      <path d="M 20.5 1525  A 11.5 11.5 0 0 1 32 1513.5 L 1188 1513.5  A 11.5 11.5 0 0 1 1199.5 1525 L 1199.5 2003  A 11.5 11.5 0 0 1 1188 2014.5 L 32 2014.5  A 11.5 11.5 0 0 1 20.5 2003 L 20.5 1525  Z " stroke-width="1" stroke="#f2f2f2" fill="none" stroke-opacity="0.9882352941176471" />
    </g>
  </defs>
  <g transform="matrix(1 0 0 1 -15 -1508 )">
    <use xlink:href="#widget382" filter="url(#filter381)" />
    <use xlink:href="#widget382" />
  </g>
</svg>