<?xml version="1.0" encoding="utf-8"?>
<svg version="1.1" xmlns:xlink="http://www.w3.org/1999/xlink" width="1190px" height="227px" xmlns="http://www.w3.org/2000/svg">
  <defs>
    <filter x="15px" y="63px" width="1190px" height="227px" filterUnits="userSpaceOnUse" id="filter479">
      <feOffset dx="0" dy="0" in="SourceAlpha" result="shadowOffsetInner" />
      <feGaussianBlur stdDeviation="2.5" in="shadowOffsetInner" result="shadowGaussian" />
      <feComposite in2="shadowGaussian" operator="atop" in="SourceAlpha" result="shadowComposite" />
      <feColorMatrix type="matrix" values="0 0 0 0 0.8941176470588235  0 0 0 0 0.8941176470588235  0 0 0 0 0.8941176470588235  0 0 0 1 0  " in="shadowComposite" />
    </filter>
    <g id="widget480">
      <path d="M 21 80  A 11 11 0 0 1 32 69 L 1188 69  A 11 11 0 0 1 1199 80 L 1199 273  A 11 11 0 0 1 1188 284 L 32 284  A 11 11 0 0 1 21 273 L 21 80  Z " fill-rule="nonzero" fill="#ffffff" stroke="none" />
      <path d="M 20.5 80  A 11.5 11.5 0 0 1 32 68.5 L 1188 68.5  A 11.5 11.5 0 0 1 1199.5 80 L 1199.5 273  A 11.5 11.5 0 0 1 1188 284.5 L 32 284.5  A 11.5 11.5 0 0 1 20.5 273 L 20.5 80  Z " stroke-width="1" stroke="#f2f2f2" fill="none" stroke-opacity="0.9882352941176471" />
    </g>
  </defs>
  <g transform="matrix(1 0 0 1 -15 -63 )">
    <use xlink:href="#widget480" filter="url(#filter479)" />
    <use xlink:href="#widget480" />
  </g>
</svg>