<?xml version="1.0" encoding="utf-8"?>
<svg version="1.1" xmlns:xlink="http://www.w3.org/1999/xlink" width="18px" height="18px" xmlns="http://www.w3.org/2000/svg">
  <g transform="matrix(1 0 0 1 -619 -1534 )">
    <path d="M 15.494727272727289 5.727272727272748  L 16.363636363636374 5.727272727272748  C 17.267375045177687 5.727272727272748  18 6.459897682095061  18 7.363636363636374  L 18 10.636363636363626  C 18 11.540102317904939  17.267375045177687 12.272727272727252  16.363636363636374 12.272727272727252  L 15.494727272727289 12.272727272727252  C 15.082029754455903 15.545503445287352  12.298694152862595 17.999944011066304  9 18  L 9 16.363636363636374  C 11.711216044623882 16.363636363636374  13.909090909090935 14.16576149916932  13.909090909090935 11.454545454545439  L 13.909090909090935 6.545454545454561  C 13.909090909090935 3.8342385008306223  11.711216044623882 1.636363636363626  9 1.636363636363626  C 6.288783955376118 1.636363636363626  4.090909090909065 3.8342385008306223  4.090909090909065 6.545454545454561  L 4.090909090909065 12.272727272727252  L 1.636363636363626 12.272727272727252  C 0.7326249548223132 12.272727272727252  0 11.540102317904939  0 10.636363636363626  L 0 7.363636363636374  C 0 6.459897682095061  0.7326249548223132 5.727272727272748  1.636363636363626 5.727272727272748  L 2.505272727272711 5.727272727272748  C 2.918376959044849 2.4548460203232594  5.701601652519173 0.0008806454156911059  9 0.0008806454156911059  C 12.29839834748077 0.0008806454156911059  15.08162304095515 2.4548460203232594  15.494727272727289 5.727272727272748  Z M 9 13.090909090909122  C 7.773102301803647 13.092794290037943  6.570605676074763 12.748210940919876  5.530909090909063 12.096818181818207  L 6.398181818181797 10.709181818181833  C 7.177971221512564 11.197664714176256  8.0798452064314 11.45603175828353  9 11.454545454545439  C 9.9201547935686 11.45603175828353  10.822028778487436 11.197664714176256  11.601818181818203 10.709181818181833  L 12.469090909090937 12.096818181818207  C 11.429394323925237 12.748210940919876  10.226897698196353 13.092794290037943  9 13.090909090909122  Z " fill-rule="nonzero" fill="#666ee8" stroke="none" transform="matrix(1 0 0 1 619 1534 )" />
  </g>
</svg>