<?xml version="1.0" encoding="utf-8"?>
<svg version="1.1" xmlns:xlink="http://www.w3.org/1999/xlink" width="7px" height="12px" xmlns="http://www.w3.org/2000/svg">
  <g transform="matrix(1 0 0 1 -1562 -80 )">
    <path d="M 6.65288675343254 0.8810308399604878  C 6.729846112380983 0.9584103349989164  6.768325791855204 1.047396754293004  6.768325791855204 1.1479900978427509  C 6.768325791855204 1.2485834413926966  6.729846112380983 1.3375698606867843  6.65288675343254 1.414949355725014  L 2.116132543421827 5.9764705882353155  L 6.65288675343254 10.537991820745503  C 6.729846112380983 10.615371315783847  6.768325791855204 10.704357735077934  6.768325791855204 10.804951078627766  C 6.768325791855204 10.905544422177627  6.729846112380983 10.994530841471601  6.65288675343254 11.07191033651003  L 6.075691561319218 11.652256549297618  C 5.998732202370775 11.729636044335933  5.910228939580065 11.76832579185509  5.8101817729470895 11.76832579185509  C 5.710134606314114 11.76832579185509  5.621631343523404 11.729636044335933  5.544671984574961 11.652256549297618  L 0.16521279407879774 6.243429846117464  C 0.08825343513029792 6.166050351079149  0.04977375565607644 6.077063931785176  0.04977375565607644 5.9764705882353155  C 0.04977375565607644 5.875877244685341  0.08825343513029792 5.786890825391367  0.16521279407879774 5.709511330352939  L 5.544671984574961 0.3006846271729273  C 5.621631343523404 0.2233051321346977  5.710134606314114 0.1846153846154266  5.8101817729470895 0.1846153846154266  C 5.910228939580065 0.1846153846154266  5.998732202370775 0.2233051321346977  6.075691561319218 0.3006846271729273  L 6.65288675343254 0.8810308399604878  Z " fill-rule="nonzero" fill="#cccccc" stroke="none" transform="matrix(1 0 0 1 1562 80 )" />
  </g>
</svg>