<?xml version="1.0" encoding="utf-8"?>
<svg version="1.1" xmlns:xlink="http://www.w3.org/1999/xlink" width="26px" height="26px" xmlns="http://www.w3.org/2000/svg">
  <g transform="matrix(1 0 0 1 -76 -210 )">
    <path d="M 2.8888888888888857 3  L 2.8888888888888857 11.700000000000003  L 5.777777777777786 8.811111111111074  L 13.722222222222214 16.75555555555559  L 18.777777777777786 11.700000000000003  L 23 16.03333333333333  L 23 3  L 2.8888888888888857 3  Z M 0 1.4444444444444144  C 0 0.6466998057999902  0.6466998057999618 0  1.44444444444445 0  L 24.555555555555557 0  C 25.353300194200045 0  26 0.6466998057999902  26 1.4444444444444144  L 26 24.555555555555586  C 26 25.353300194200017  25.353300194200045 26  24.555555555555557 26  L 1.44444444444445 26  C 0.6466998057999618 26  0 25.353300194200017  0 24.555555555555586  L 0 1.4444444444444144  Z M 18.055555555555557 10.111111111111079  C 16.858938597588832 10.111111111111079  15.888888888888884 9.141061402411196  15.888888888888884 7.944444444444414  C 15.888888888888884 6.747827486477726  16.858938597588832 5.777777777777743  18.055555555555557 5.777777777777743  C 19.252172513522282 5.777777777777743  20.222222222222214 6.747827486477726  20.222222222222214 7.944444444444414  C 20.222222222222214 9.141061402411196  19.252172513522282 10.111111111111079  18.055555555555557 10.111111111111079  Z " fill-rule="nonzero" fill="#666ee8" stroke="none" transform="matrix(1 0 0 1 76 210 )" />
  </g>
</svg>