<?xml version="1.0" encoding="utf-8"?>
<svg version="1.1" xmlns:xlink="http://www.w3.org/1999/xlink" width="13px" height="13px" viewBox="620 765  13 13" xmlns="http://www.w3.org/2000/svg">
  <path d="M 626.5 765  C 630.14 765  633 767.86  633 771.5  C 633 775.14  630.14 778  626.5 778  C 622.86 778  620 775.14  620 771.5  C 620 767.86  622.86 765  626.5 765  Z " fill-rule="nonzero" fill="#ffffff" stroke="none" />
  <path d="M 626.5 765.5  C 629.86 765.5  632.5 768.14  632.5 771.5  C 632.5 774.86  629.86 777.5  626.5 777.5  C 623.14 777.5  620.5 774.86  620.5 771.5  C 620.5 768.14  623.14 765.5  626.5 765.5  Z " stroke-width="1" stroke="#797979" fill="none" />
  <path d="M 626.5 774.75  C 624.68 774.75  623.25 773.32  623.25 771.5  C 623.25 769.68  624.68 768.25  626.5 768.25  C 628.32 768.25  629.75 769.68  629.75 771.5  C 629.75 773.32  628.32 774.75  626.5 774.75  " fill-rule="nonzero" fill="#797979" stroke="none" />
</svg>