<?xml version="1.0" encoding="utf-8"?>
<svg version="1.1" xmlns:xlink="http://www.w3.org/1999/xlink" width="16px" height="19px" xmlns="http://www.w3.org/2000/svg">
  <g transform="matrix(1 0 0 1 -1200 -63 )">
    <path d="M 15.709090909090904 7.8546134739322895  C 15.709090909090904 9.937751782016845  14.881574022090902 11.935571574554018  13.408581818181801 13.408581818181801  L 7.854545454545452 18.962618181818186  L 2.3005090909091024 13.408581818181801  C 0.8275168870000016 11.935571574554018  0 9.937751782016845  0 7.8546134739322895  C 0 3.516667802534073  3.516599783147214 6.801938684475317E-05  7.854545454545452 6.801938684475317E-05  C 12.192491125943683 6.801938684475317E-05  15.709090909090904 3.516667802534073  15.709090909090904 7.8546134739322895  Z M 7.854545454545452 11.345454545454544  C 9.782521308500215 11.345454545454544  11.345454545454551 9.782521308500238  11.345454545454551 7.854545454545445  C 11.345454545454551 5.926569600590653  9.782521308500215 4.3636363636363455  7.854545454545452 4.3636363636363455  C 5.926569600590689 4.3636363636363455  4.363636363636353 5.926569600590653  4.363636363636353 7.854545454545445  C 4.363636363636353 9.782521308500238  5.926569600590689 11.345454545454544  7.854545454545452 11.345454545454544  Z M 7.854545454545452 9.599999999999994  C 6.890557527568056 9.599999999999994  6.109090909090902 8.818533381522826  6.109090909090902 7.854545454545445  C 6.109090909090902 6.890557527568063  6.890557527568056 6.109090909090895  7.854545454545452 6.109090909090895  C 8.81853338152284 6.109090909090895  9.600000000000001 6.890557527568063  9.600000000000001 7.854545454545445  C 9.600000000000001 8.818533381522826  8.81853338152284 9.599999999999994  7.854545454545452 9.599999999999994  Z " fill-rule="nonzero" fill="#333333" stroke="none" transform="matrix(1 0 0 1 1200 63 )" />
  </g>
</svg>