<?xml version="1.0" encoding="utf-8"?>
<svg version="1.1" xmlns:xlink="http://www.w3.org/1999/xlink" width="13px" height="13px" viewBox="689 765  13 13" xmlns="http://www.w3.org/2000/svg">
  <path d="M 695.5 765  C 699.14 765  702 767.86  702 771.5  C 702 775.14  699.14 778  695.5 778  C 691.86 778  689 775.14  689 771.5  C 689 767.86  691.86 765  695.5 765  Z " fill-rule="nonzero" fill="#f0f0f0" stroke="none" />
  <path d="M 695.5 765.5  C 698.86 765.5  701.5 768.14  701.5 771.5  C 701.5 774.86  698.86 777.5  695.5 777.5  C 692.14 777.5  689.5 774.86  689.5 771.5  C 689.5 768.14  692.14 765.5  695.5 765.5  Z " stroke-width="1" stroke="#797979" fill="none" />
  <path d="M 695.5 774.75  C 693.68 774.75  692.25 773.32  692.25 771.5  C 692.25 769.68  693.68 768.25  695.5 768.25  C 697.32 768.25  698.75 769.68  698.75 771.5  C 698.75 773.32  697.32 774.75  695.5 774.75  " fill-rule="nonzero" fill="#797979" stroke="none" />
</svg>