<?xml version="1.0" encoding="utf-8"?>
<svg version="1.1" xmlns:xlink="http://www.w3.org/1999/xlink" width="50px" height="37px" xmlns="http://www.w3.org/2000/svg">
  <g transform="matrix(1 0 0 1 -3665 -65 )">
    <path d="M 29.624999999999947 29  L 18.102272727272748 29  C 17.543693551758395 33.46552070786288  14.186935517584118 36.37787327434475  10.227272727272691 36.37787327434475  C 6.2676099369612075 36.37787327434475  2.9108519027870443 33.46552070786288  2.352272727272748 29.545454545454533  L 0 29.545454545454533  L 0 2.272727272727252  C 0 1.0175346594754444  1.017534659475416 0  2.272727272727309 0  L 34.090909090909065 0  C 35.3461017041609 0  36.363636363636374 1.0175346594754444  36.363636363636374 2.272727272727252  L 36.363636363636374 6.818181818181813  L 43.181818181818244 6.818181818181813  L 50 16.03636363636363  L 50 29.545454545454533  L 45.37500000000006 29.545454545454533  C 44.816420824485704 33.46552070786288  41.45966279031143 36.37787327434472  37.5 36.37787327434472  C 33.54033720968857 36.37787327434472  30.183579175514296 33.46552070786288  29.624999999999947 29  Z M 31 22.840909090909122  L 31 5  L 5 5  L 5 22.840909090909122  C 6.041670027897112 21.313436781142002  8.089824046811202 20.45263481338011  10.228008423100164 20.45263481338011  C 13.301240689364532 20.45263481338011  16.099547722908596 22.2229603331526  17.415909090909054 25  L 30.311363636363637 25  C 30.69318181818187 24.197727272727292  31.204545454545386 23.46818181818182  31 22.840909090909122  Z M 36.363636363636374 11.363636363636346  L 36.363636363636374 18.181818181818187  L 45.454545454545496 18.181818181818187  L 45.454545454545496 17.534090909090935  L 40.89090909090913 11.363636363636346  L 36.363636363636374 11.363636363636346  Z M 37.5 31.818181818181785  C 39.3834165161843 31.818181818181785  40.9102272727273 30.29137106163887  40.9102272727273 28.407954545454515  C 40.9102272727273 26.52453802927019  39.3834165161843 24.997727272727275  37.5 24.997727272727275  C 35.61658348381559 24.997727272727275  34.0897727272727 26.52453802927019  34.0897727272727 28.407954545454515  C 34.0897727272727 30.29137106163887  35.6165834838157 31.818181818181785  37.5 31.818181818181785  Z M 13.636363636363628 28.409090837249725  C 13.636363636363628 26.526301917371995  12.110061647150474 24.999999928158758  10.227272727272691 24.999999928158758  C 8.344483807395022 24.999999928158758  6.818181818181756 26.526301917371995  6.818181818181756 28.409090837249725  C 6.818181857858691 30.29187980091285  8.344483835450774 31.8181817463406  10.227272727272691 31.8181817463406  C 12.110061647150474 31.8181817463406  13.636363636363628 30.29187975712736  13.636363636363628 28.409090837249725  Z " fill-rule="nonzero" fill="#ffffff" stroke="none" transform="matrix(1 0 0 1 3665 65 )" />
  </g>
</svg>