<?xml version="1.0" encoding="utf-8"?>
<svg version="1.1" xmlns:xlink="http://www.w3.org/1999/xlink" width="16px" height="16px" xmlns="http://www.w3.org/2000/svg">
  <g transform="matrix(1 0 0 1 -3421 -756 )">
    <path d="M 1.6000000000000014 8  L 4 8  C 4.883655599729266 8  5.600000000000001 8.716344400270714  5.600000000000001 9.600000000000023  L 5.600000000000001 13.600000000000023  C 5.600000000000001 14.483655599729332  4.883655599729266 15.200000000000045  4 15.200000000000045  L 1.6000000000000014 15.200000000000045  C 0.716344400270728 15.200000000000045  0 14.483655599729332  0 13.600000000000023  L 0 8  C 0 3.5815999999999804  3.5816000000000017 0  8 0  C 12.418399999999998 0  16 3.5815999999999804  16 8  L 16 13.600000000000023  C 16 14.483655599729332  15.283655599729272 15.200000000000045  14.399999999999999 15.200000000000045  L 12 15.200000000000045  C 11.116344400270734 15.200000000000045  10.399999999999999 14.483655599729332  10.399999999999999 13.600000000000023  L 10.399999999999999 9.600000000000023  C 10.399999999999999 8.716344400270714  11.116344400270734 8  12 8  L 14.399999999999999 8  C 14.399999999999999 4.4653776010829915  11.53462239891708 1.6000000000000227  8 1.6000000000000227  C 4.4653776010829205 1.6000000000000227  1.6000000000000014 4.4653776010829915  1.6000000000000014 8  Z " fill-rule="nonzero" fill="#666ee8" stroke="none" transform="matrix(1 0 0 1 3421 756 )" />
  </g>
</svg>