<?xml version="1.0" encoding="utf-8"?>
<svg version="1.1" xmlns:xlink="http://www.w3.org/1999/xlink" width="14px" height="16px" xmlns="http://www.w3.org/2000/svg">
  <g transform="matrix(1 0 0 1 -3667 -595 )">
    <path d="M 0.7847777777777765 3.111111111111086  L 3.1111111111111143 3.111111111111086  L 3.1111111111111143 0.7777777777778283  C 3.1111111111111143 0.34822297235382393  3.459334083464938 0  3.8888888888888857 0  L 13.222222222222229 0  C 13.651777027646176 0  14 0.34822297235382393  14 0.7777777777778283  L 14 11.666666666666742  C 14 12.096221472090633  13.651777027646176 12.444444444444457  13.222222222222229 12.444444444444457  L 10.888888888888914 12.444444444444457  L 10.888888888888914 14.777777777777828  C 10.888888888888914 15.20711111111109  10.538888888888891 15.555555555555543  10.10566666666665 15.555555555555543  L 0.7832222222222356 15.555555555555543  C 0.781666559252244 15.555564881124951  0.7801108718250589 15.555569543941033  0.7785551809038225 15.555569543941033  C 0.3488690687409246 15.555569543941033  0.0004215366420226019 15.207463683169749  0 14.777777777777828  L 0.002333333333325527 3.888888888888914  C 0.002333333333325527 3.4595555555555393  0.35233333333331984 3.111111111111086  0.7847777777777765 3.111111111111086  Z M 9.333333333333314 4.666666666666629  L 1.5571111111111122 4.666666666666629  L 1.555555555555543 14  L 9.333333333333314 14  L 9.333333333333314 4.666666666666629  Z M 4.666666666666657 1.555555555555543  L 4.666666666666657 3.111111111111086  L 10.888888888888914 3.111111111111086  L 10.888888888888914 10.888888888888914  L 12.444444444444457 10.888888888888914  L 12.444444444444457 1.555555555555543  L 4.666666666666657 1.555555555555543  Z M 3.1111111111111143 8.555555555555543  L 3.1111111111111143 7  L 7.7777777777777715 7  L 7.7777777777777715 8.555555555555543  L 3.1111111111111143 8.555555555555543  Z M 3.1111111111111143 11.666666666666742  L 3.1111111111111143 10.111111111111086  L 7.7777777777777715 10.111111111111086  L 7.7777777777777715 11.666666666666742  L 3.1111111111111143 11.666666666666742  Z " fill-rule="nonzero" fill="#666ee8" stroke="none" transform="matrix(1 0 0 1 3667 595 )" />
  </g>
</svg>