<?xml version="1.0" encoding="utf-8"?>
<svg version="1.1" xmlns:xlink="http://www.w3.org/1999/xlink" width="116px" height="141px" xmlns="http://www.w3.org/2000/svg">
  <g transform="matrix(1 0 0 1 -12 -117 )">
    <path d="M 12 117  L 128 117  L 128 258  L 12 258  L 12 117  " fill-rule="nonzero" fill="#cccccc" stroke="none" />
    <path d="M 20 125  L 120 125  L 120 250  L 20 250  L 20 125  " fill-rule="nonzero" fill="#ffffff" stroke="none" />
    <path d="M 81.02 155.55  C 76.148 155.55  72.32 151.722  72.32 146.85000000000002  C 72.32 141.978  76.148 138.15  81.02 138.15  C 85.892 138.15  89.72 141.978  89.72 146.85000000000002  C 89.72 151.722  85.892 155.55  81.02 155.55  " fill-rule="nonzero" fill="#cccccc" stroke="none" />
    <path d="M 23 247  L 23 181.55  L 46.5 151.8  L 79.4 175.60000000000002  L 98.2 169.64999999999998  L 117 175.60000000000002  L 117 247  L 23 247  " fill-rule="nonzero" fill="#169bd5" stroke="none" />
  </g>
</svg>