<?xml version="1.0" encoding="utf-8"?>
<svg version="1.1" xmlns:xlink="http://www.w3.org/1999/xlink" width="166px" height="141px" xmlns="http://www.w3.org/2000/svg">
  <g transform="matrix(1 0 0 1 -12 -117 )">
    <path d="M 12 117  L 178 117  L 178 258  L 12 258  L 12 117  " fill-rule="nonzero" fill="#cccccc" stroke="none" />
    <path d="M 22 127  L 168 127  L 168 248  L 22 248  L 22 127  " fill-rule="nonzero" fill="#ffffff" stroke="none" />
    <path d="M 108.89500000000001 159.3  C 102.97300000000001 159.3  98.32000000000001 154.64700000000002  98.32000000000001 148.72500000000002  C 98.32000000000001 142.80300000000003  102.97300000000001 138.15  108.89500000000001 138.15  C 114.81700000000001 138.15  119.47 142.80300000000003  119.47 148.72500000000002  C 119.47 154.64700000000002  114.81700000000001 159.3  108.89500000000001 159.3  " fill-rule="nonzero" fill="#cccccc" stroke="none" />
    <path d="M 26 245  L 26 182.3  L 60.75 153.8  L 109.39999999999999 186.9012048192771  L 137.2 170.89999999999998  L 165 186.9012048192771  L 165 245  L 26 245  " fill-rule="nonzero" fill="#169bd5" stroke="none" />
  </g>
</svg>