<?xml version="1.0" encoding="utf-8"?>
<svg version="1.1" xmlns:xlink="http://www.w3.org/1999/xlink" width="14px" height="13px" xmlns="http://www.w3.org/2000/svg">
  <g transform="matrix(1 0 0 1 -537 -2556 )">
    <path d="M 13.000521768978118 3.1542608695652063  C 13.754853619724074 4.4071800066744515  13.390795021887769 6.031771441705558  12.173913098011198 6.842956521739155  L 12.173913098011198 10.956521739130437  L 12.78260873200746 10.956521739130437  L 12.78260873200746 12  L 0.608696052082081 12  L 0.608696052082081 10.956521739130437  L 1.2173916860783578 10.956521739130437  L 1.2173916860783578 6.842956521739155  C 0.4563280081971399 6.334972900466852  -0.0005044838795029705 5.4802392822663535  0 4.565217391304344  C 0 4.061826086956529  0.136348240100979 3.5766956521739246  0.3853047544054533 3.16339130434784  L 2.0360873138033355 0.30434782608696764  C 2.144817553905476 0.11602152012480359  2.345757252569662 0  2.5632177328441017 0  L 10.828695746879433 0  C 11.046156227153872 0  11.24709592581808 0.11602152012480359  11.355826165920206 0.30434782608696764  L 13.000521768978118 3.1542608695652063  Z M 10.956521830018659 7.287304347826079  C 10.108183765713278 7.382473015555462  9.264026862181865 7.076325436065532  8.673913202532638 6.45947826086956  C 8.157561591901455 6.999545603250567  7.442841591809227 7.30500594471971  6.695652392044771 7.304956521739116  C 5.948643874076694 7.305323750891632  5.233950602278732 7.000314643941891  4.717391581556896 6.460695652173911  C 4.127162746869992 7.077319971313045  3.283021722913368 7.383236687530599  2.43478295407089 7.287913043478256  L 2.43478295407089 10.956521739130437  L 10.956521830018659 10.956521739130437  L 10.956521830018659 7.287913043478256  Z M 2.915043809293948 1.2173913043478137  L 1.434087331781022 3.7818260869564995  C 1.360673913939614 3.9632131197779756  1.322933345735521 4.1570569210804535  1.322933345735521 4.352737236689421  C 1.322933345735521 5.193170551649331  2.004239140864371 5.874476367124231  2.844672430726199 5.874476367124231  C 3.381267048357614 5.874476367124231  3.878198865629201 5.591868717414059  4.1525220332083705 5.130695652173927  C 4.356435070597115 4.621217391304356  5.077739396882691 4.621217391304356  5.282261129905443 5.130695652173927  C 5.5130331849221434 5.709087071835228  6.072922630644392 6.088506594015172  6.695652392044771 6.088506594015172  C 7.3183821534451425 6.088506594015172  7.878271599167391 5.709087071835228  8.109043654184113 5.130695652173927  C 8.312956691572857 4.621217391304356  9.034261017858427 4.621217391304356  9.238782750881185 5.130695652173927  C 9.471858934028226 5.704423778834524  10.02935944692986 6.0796889192391745  10.648623890291546 6.0796889192391745  C 11.48905718015336 6.0796889192391745  12.170362975282217 5.398383103764303  12.170362975282217 4.557949788804393  C 12.170362975282217 4.2809810988575805  12.094772506762823 4.009264368479961  11.951739191602556 3.772086956521747  L 10.475652279161608 1.2173913043478137  L 2.915652504927941 1.2173913043478137  Z " fill-rule="nonzero" fill="#666ee8" stroke="none" transform="matrix(1 0 0 1 537 2556 )" />
  </g>
</svg>