<?xml version="1.0" encoding="utf-8"?>
<svg version="1.1" xmlns:xlink="http://www.w3.org/1999/xlink" width="38px" height="31px" xmlns="http://www.w3.org/2000/svg">
  <g transform="matrix(1 0 0 1 -1210 -2514 )">
    <path d="M 1229 2514  C 1239.64 2514  1248 2520.82  1248 2529.5  C 1248 2538.18  1239.64 2545  1229 2545  C 1218.36 2545  1210 2538.18  1210 2529.5  C 1210 2520.82  1218.36 2514  1229 2514  Z " fill-rule="nonzero" fill="#ffffff" stroke="none" />
    <path d="M 1229 2514.5  C 1239.36 2514.5  1247.5 2521.1  1247.5 2529.5  C 1247.5 2537.9  1239.36 2544.5  1229 2544.5  C 1218.64 2544.5  1210.5 2537.9  1210.5 2529.5  C 1210.5 2521.1  1218.64 2514.5  1229 2514.5  Z " stroke-width="1" stroke="#797979" fill="none" />
  </g>
</svg>