<?xml version="1.0" encoding="utf-8"?>
<svg version="1.1" xmlns:xlink="http://www.w3.org/1999/xlink" width="35px" height="33px" xmlns="http://www.w3.org/2000/svg">
  <g transform="matrix(1 0 0 1 -1150 -2488 )">
    <path d="M 1167.5 2488  C 1177.3 2488  1185 2495.26  1185 2504.5  C 1185 2513.74  1177.3 2521  1167.5 2521  C 1157.7 2521  1150 2513.74  1150 2504.5  C 1150 2495.26  1157.7 2488  1167.5 2488  Z " fill-rule="nonzero" fill="#ffffff" stroke="none" />
    <path d="M 1167.5 2488.5  C 1177.02 2488.5  1184.5 2495.54  1184.5 2504.5  C 1184.5 2513.46  1177.02 2520.5  1167.5 2520.5  C 1157.98 2520.5  1150.5 2513.46  1150.5 2504.5  C 1150.5 2495.54  1157.98 2488.5  1167.5 2488.5  Z " stroke-width="1" stroke="#797979" fill="none" />
  </g>
</svg>