<?xml version="1.0" encoding="utf-8"?>
<svg version="1.1" xmlns:xlink="http://www.w3.org/1999/xlink" width="35px" height="33px" xmlns="http://www.w3.org/2000/svg">
  <g transform="matrix(1 0 0 1 -1660 -2510 )">
    <path d="M 1677.5 2510  C 1687.3 2510  1695 2517.26  1695 2526.5  C 1695 2535.74  1687.3 2543  1677.5 2543  C 1667.7 2543  1660 2535.74  1660 2526.5  C 1660 2517.26  1667.7 2510  1677.5 2510  Z " fill-rule="nonzero" fill="#ffffff" stroke="none" />
    <path d="M 1677.5 2510.5  C 1687.02 2510.5  1694.5 2517.54  1694.5 2526.5  C 1694.5 2535.46  1687.02 2542.5  1677.5 2542.5  C 1667.98 2542.5  1660.5 2535.46  1660.5 2526.5  C 1660.5 2517.54  1667.98 2510.5  1677.5 2510.5  Z " stroke-width="1" stroke="#797979" fill="none" />
  </g>
</svg>