<?xml version="1.0" encoding="utf-8"?>
<svg version="1.1" xmlns:xlink="http://www.w3.org/1999/xlink" width="54px" height="51px" xmlns="http://www.w3.org/2000/svg">
  <g transform="matrix(1 0 0 1 -1153 -2494 )">
    <path d="M 1153 2494  L 1207 2494  L 1207 2545  L 1153 2545  L 1153 2494  " fill-rule="nonzero" fill="#cccccc" stroke="none" />
    <path d="M 1157 2498  L 1203 2498  L 1203 2541  L 1157 2541  L 1157 2498  " fill-rule="nonzero" fill="#ffffff" stroke="none" />
    <path d="M 1184.905 2509.3  C 1182.763 2509.3  1181.08 2507.617  1181.08 2505.4750000000004  C 1181.08 2503.333  1182.763 2501.65  1184.905 2501.65  C 1187.047 2501.65  1188.73 2503.333  1188.73 2505.4750000000004  C 1188.73 2507.617  1187.047 2509.3  1184.905 2509.3  " fill-rule="nonzero" fill="#cccccc" stroke="none" />
    <path d="M 1159 2540  L 1159 2518  L 1169.75 2508  L 1184.8 2517.3333333333335  L 1193.4 2514  L 1202 2517.3333333333335  L 1202 2540  L 1159 2540  " fill-rule="nonzero" fill="#169bd5" stroke="none" />
  </g>
</svg>