<?xml version="1.0" encoding="utf-8"?>
<svg version="1.1" xmlns:xlink="http://www.w3.org/1999/xlink" width="24px" height="26px" xmlns="http://www.w3.org/2000/svg">
  <g transform="matrix(1 0 0 1 -85 -1066 )">
    <path d="M 2.666666666666664 3  L 2.666666666666664 11.700000000000003  L 5.33333333333334 8.811111111111074  L 12.666666666666659 16.75555555555559  L 17.333333333333343 11.700000000000003  L 21 16.03333333333333  L 21 3  L 2.666666666666664 3  Z M 0 1.4444444444444144  C 0 0.6466998057999902  0.5969536668922725 0  1.3333333333333384 0  L 22.666666666666668 0  C 23.403046333107735 0  24 0.6466998057999902  24 1.4444444444444144  L 24 24.555555555555586  C 24 25.353300194200017  23.403046333107735 26  22.666666666666668 26  L 1.3333333333333384 26  C 0.5969536668922725 26  0 25.353300194200017  0 24.555555555555586  L 0 1.4444444444444144  Z M 16.666666666666668 10.111111111111079  C 15.562097167005076 10.111111111111079  14.666666666666663 9.141061402411196  14.666666666666663 7.944444444444414  C 14.666666666666663 6.747827486477726  15.562097167005076 5.777777777777743  16.666666666666668 5.777777777777743  C 17.77123616632826 5.777777777777743  18.666666666666657 6.747827486477726  18.666666666666657 7.944444444444414  C 18.666666666666657 9.141061402411196  17.77123616632826 10.111111111111079  16.666666666666668 10.111111111111079  Z " fill-rule="nonzero" fill="#666ee8" stroke="none" transform="matrix(1 0 0 1 85 1066 )" />
  </g>
</svg>