<?xml version="1.0" encoding="utf-8"?>
<svg version="1.1" xmlns:xlink="http://www.w3.org/1999/xlink" width="1190px" height="1016px" xmlns="http://www.w3.org/2000/svg">
  <defs>
    <filter x="-5px" y="-5px" width="1190px" height="1016px" filterUnits="userSpaceOnUse" id="filter383">
      <feOffset dx="0" dy="0" in="SourceAlpha" result="shadowOffsetInner" />
      <feGaussianBlur stdDeviation="2.5" in="shadowOffsetInner" result="shadowGaussian" />
      <feComposite in2="shadowGaussian" operator="atop" in="SourceAlpha" result="shadowComposite" />
      <feColorMatrix type="matrix" values="0 0 0 0 0.8941176470588235  0 0 0 0 0.8941176470588235  0 0 0 0 0.8941176470588235  0 0 0 1 0  " in="shadowComposite" />
    </filter>
    <g id="widget384">
      <path d="M 1 12.000000000000002  A 11 11 0 0 1 11.999999999999998 1 L 1168 1  A 11 11 0 0 1 1179 12 L 1179 994  A 11 11 0 0 1 1168 1005 L 12 1005  A 11 11 0 0 1 1 994 L 1 12  Z " fill-rule="nonzero" fill="#ffffff" stroke="none" />
      <path d="M 0.5 12.000000000000002  A 11.5 11.5 0 0 1 11.999999999999998 0.5 L 1168 0.5  A 11.5 11.5 0 0 1 1179.5 12 L 1179.5 994  A 11.5 11.5 0 0 1 1168 1005.5 L 12 1005.5  A 11.5 11.5 0 0 1 0.5 994 L 0.5 12  Z " stroke-width="1" stroke="#f2f2f2" fill="none" stroke-opacity="0.9882352941176471" />
    </g>
  </defs>
  <g transform="matrix(1 0 0 1 5 5 )">
    <use xlink:href="#widget384" filter="url(#filter383)" />
    <use xlink:href="#widget384" />
  </g>
</svg>