<?xml version="1.0" encoding="utf-8"?>
<svg version="1.1" xmlns:xlink="http://www.w3.org/1999/xlink" width="13px" height="14px" xmlns="http://www.w3.org/2000/svg">
  <g transform="matrix(1 0 0 1 -1036 -100 )">
    <path d="M 0.31818181818175617 3.5  L 6.36363636363626 0  L 12.409090909090992 3.5  L 12.409090909090992 10.5  L 6.36363636363626 14  L 0.31818181818175617 10.5  L 0.31818181818175617 3.5  Z M 11.13636363636374 4.233727272727265  L 6.36363636363626 1.4706363636363449  L 1.5909090909090082 4.233727272727265  L 1.5909090909090082 9.766272727272735  L 6.36363636363626 12.529363636363655  L 11.13636363636374 9.766272727272735  L 11.13636363636374 4.233727272727265  Z M 6.36363636363626 9.545454545454561  C 4.957820636794395 9.545454545454561  3.818181818181756 8.405815726842036  3.818181818181756 7  C 3.818181818181756 5.594184273157964  4.957820636794395 4.454545454545439  6.36363636363626 4.454545454545439  C 7.769452090478353 4.454545454545439  8.909090909090992 5.594184273157964  8.909090909090992 7  C 8.909090909090992 8.405815726842036  7.769452090478353 9.545454545454561  6.36363636363626 9.545454545454561  Z M 6.36363636363626 8.272727272727309  C 7.066544227057421 8.272727272727309  7.63636363636374 7.70290786342099  7.63636363636374 7  C 7.63636363636374 6.2970921365790105  7.066544227057421 5.727272727272691  6.36363636363626 5.727272727272691  C 5.660728500215328 5.727272727272691  5.090909090909008 6.2970921365790105  5.090909090909008 7  C 5.090909090909008 7.70290786342099  5.660728500215328 8.272727272727309  6.36363636363626 8.272727272727309  Z " fill-rule="nonzero" fill="#cccccc" stroke="none" fill-opacity="0.9882352941176471" transform="matrix(1 0 0 1 1036 100 )" />
  </g>
</svg>