<?xml version="1.0" encoding="utf-8"?>
<svg version="1.1" xmlns:xlink="http://www.w3.org/1999/xlink" width="14px" height="16px" xmlns="http://www.w3.org/2000/svg">
  <g>
    <path d="M 10.88888888888889 8.555555555555555  L 10.88888888888889 7  L 3.1111111111111107 7  L 3.1111111111111107 8.555555555555555  L 10.88888888888889 8.555555555555555  Z M 14 3.111111111111111  C 14 2.2516666666666745  13.303888888888903 1.5555555555555556  12.444444444444443 1.5555555555555556  L 11.666666666666668 1.5555555555555556  L 11.666666666666668 0  L 10.11111111111111 0  L 10.11111111111111 1.5555555555555556  L 3.8888888888888893 1.5555555555555556  L 3.8888888888888893 0  L 2.333333333333333 0  L 2.333333333333333 1.5555555555555556  L 1.5555555555555554 1.5555555555555556  C 0.6961111111110969 1.5555555555555556  0.007777777777770704 2.2516666666666745  0 3.111111111111111  L 0 14  C 0 14.859444444444458  0.6961111111110969 15.555555555555555  1.5555555555555554 15.555555555555555  L 12.444444444444443 15.555555555555555  C 13.303888888888903 15.555555555555555  14 14.859444444444458  14 14  L 14 3.111111111111111  Z M 12.444444444444443 5.444444444444444  L 12.444444444444443 14  L 1.5555555555555554 14  L 1.5555555555555554 5.444444444444444  L 12.444444444444443 5.444444444444444  Z M 8.555555555555557 11.666666666666666  L 8.555555555555557 10.11111111111111  L 3.1111111111111107 10.11111111111111  L 3.1111111111111107 11.666666666666666  L 8.555555555555557 11.666666666666666  Z " fill-rule="nonzero" fill="#cccccc" stroke="none" />
  </g>
</svg>