<?xml version="1.0" encoding="utf-8"?>
<svg version="1.1" xmlns:xlink="http://www.w3.org/1999/xlink" width="14px" height="14px" xmlns="http://www.w3.org/2000/svg">
  <g transform="matrix(1 0 0 1 0 -2 )">
    <path d="M 14 7  C 14 10.866099999999998  10.866100000000007 14  7 14  C 3.1339000000000032 14  0 10.866099999999998  0 7  C 0 3.1339000000000032  3.1339000000000032 0  7 0  C 10.866100000000007 0  14 3.1339000000000032  14 7  Z M 7 12.599999999999998  C 10.092794599052445 12.599999999999998  12.599999999999998 10.092794599052445  12.599999999999998 7  C 12.599999999999998 3.9072054009475545  10.092794599052445 1.400000000000004  7 1.400000000000004  C 3.90720540094756 1.400000000000004  1.399999999999999 3.9072054009475545  1.399999999999999 7  C 1.399999999999999 10.092794599052445  3.90720540094756 12.599999999999998  7 12.599999999999998  Z M 5.020400000000001 4.0299  L 7 6.010200000000001  L 8.9796 4.0299  L 9.9701 5.020400000000001  L 7.9898 7  L 9.9701 8.9796  L 8.9796 9.9701  L 7 7.989799999999998  L 5.020400000000001 9.9701  L 4.029900000000005 8.9796  L 6.0102 7  L 4.029900000000005 5.020400000000001  L 5.020400000000001 4.0299  Z " fill-rule="nonzero" fill="#cccccc" stroke="none" transform="matrix(1 0 0 1 0 2 )" />
  </g>
</svg>