<?xml version="1.0" encoding="utf-8"?>
<svg version="1.1" xmlns:xlink="http://www.w3.org/1999/xlink" width="22px" height="22px" xmlns="http://www.w3.org/2000/svg">
  <g transform="matrix(1 0 0 1 -172 -407 )">
    <path d="M 4 17  L 4 5.414  L 0.757 2.172  L 2.172 0.7570000000000001  L 5.414 4  L 20.656 4  C 21.208354168516593 3.999999997590523  21.6560694186858 4.44771524775973  21.6560694186858 4.999999997590523  C 21.6560694186858 5.09720285714949  21.64189722092763 5.193886408237276  21.613999999999997 5.287  L 19.214 13.286999999999999  C 19.087212514527103 13.710183313118726  18.697768244710115 14.000030666333247  18.256 14  L 6 14  L 6 16  L 17 16  L 17 18  L 5 18  C 4.447715250169207 18  4 17.552284749830793  4 17  Z M 5.5 22  C 4.671572875253809 22  4 21.328427124746188  4 20.5  C 4 19.67157287525381  4.671572875253809 19  5.5 19  C 6.32842712474619 19  6.999999999999998 19.67157287525381  6.999999999999998 20.5  C 6.999999999999998 21.328427124746188  6.328427124746188 22  5.5 22  Z M 17.5 22  C 16.67157287525381 22  16 21.328427124746188  16 20.5  C 16 19.67157287525381  16.67157287525381 19  17.5 19  C 18.328427124746188 19  19 19.67157287525381  19 20.5  C 19 21.328427124746188  18.328427124746188 22  17.5 22  Z " fill-rule="nonzero" fill="#666666" stroke="none" transform="matrix(1 0 0 1 172 407 )" />
  </g>
</svg>