<?xml version="1.0" encoding="utf-8"?>
<svg version="1.1" xmlns:xlink="http://www.w3.org/1999/xlink" width="13px" height="13px" viewBox="2671 1053  13 13" xmlns="http://www.w3.org/2000/svg">
  <path d="M 2677.5 1053  C 2681.14 1053  2684 1055.86  2684 1059.5  C 2684 1063.14  2681.14 1066  2677.5 1066  C 2673.86 1066  2671 1063.14  2671 1059.5  C 2671 1055.86  2673.86 1053  2677.5 1053  Z " fill-rule="nonzero" fill="#f0f0f0" stroke="none" />
  <path d="M 2677.5 1053.5  C 2680.86 1053.5  2683.5 1056.14  2683.5 1059.5  C 2683.5 1062.86  2680.86 1065.5  2677.5 1065.5  C 2674.14 1065.5  2671.5 1062.86  2671.5 1059.5  C 2671.5 1056.14  2674.14 1053.5  2677.5 1053.5  Z " stroke-width="1" stroke="#797979" fill="none" />
  <path d="M 2677.5 1062.75  C 2675.68 1062.75  2674.25 1061.32  2674.25 1059.5  C 2674.25 1057.68  2675.68 1056.25  2677.5 1056.25  C 2679.32 1056.25  2680.75 1057.68  2680.75 1059.5  C 2680.75 1061.32  2679.32 1062.75  2677.5 1062.75  " fill-rule="nonzero" fill="#797979" stroke="none" />
</svg>