<?xml version="1.0" encoding="utf-8"?>
<svg version="1.1" xmlns:xlink="http://www.w3.org/1999/xlink" width="14px" height="17px" xmlns="http://www.w3.org/2000/svg">
  <g transform="matrix(1 0 0 1 -1565 -312 )">
    <path d="M 11.666666666666686 4.651162790697697  C 11.666666666666686 5.541424418604663  11.426649305555543 6.3650678294573595  10.946614583333314 7.122093023255843  C 11.232204861111086 7.206879844961236  11.504123263888914 7.321947674418595  11.762369791666686 7.4672965116279215  C 12.020616319444457 7.612645348837248  12.291015625 7.833696705426348  12.573567708333314 8.130450581395337  C 12.856119791666686 8.427204457364326  13.09765625 8.776950096899213  13.298177083333314 9.1796875  C 13.498697916666686 9.58242490310073  13.665798611111086 10.103258236434101  13.799479166666686 10.7421875  C 13.933159722222229 11.381116763565899  14 12.097262596899213  14 12.890625  C 14 13.823280038759663  13.696180555555543 14.621184593023258  13.088541666666686 15.284338662790674  C 12.480902777777771 15.947492732558146  11.748697916666686 16.279069767441854  10.891927083333314 16.279069767441854  L 3.1080729166666856 16.279069767441854  C 2.2513020833333144 16.279069767441854  1.5190972222222285 15.947492732558146  0.9114583333333144 15.284338662790674  C 0.3038194444444571 14.621184593023258  0 13.823280038759663  0 12.890625  C 0 12.097262596899213  0.06684027777777146 11.381116763565899  0.20052083333331439 10.7421875  C 0.33420138888891415 10.103258236434101  0.5013020833333144 9.58242490310073  0.7018229166666856 9.1796875  C 0.90234375 8.776950096899213  1.1438802083333144 8.427204457364326  1.4264322916666856 8.130450581395337  C 1.708984375 7.833696705426348  1.979383680555543 7.612645348837248  2.2376302083333144 7.4672965116279215  C 2.495876736111086 7.321947674418595  2.767795138888914 7.206879844961236  3.0533854166666856 7.122093023255843  C 2.573350694444457 6.3650678294573595  2.3333333333333144 5.541424418604663  2.3333333333333144 4.651162790697697  C 2.3333333333333144 4.0213178294573595  2.4563802083333144 3.4202398255814046  2.7024739583333144 2.8479287790697754  C 2.9485677083333144 2.275617732558146  3.28125 1.7805232558139323  3.7005208333333144 1.3626453488371908  C 4.119791666666686 0.9447674418605061  4.616536458333314 0.6131904069767415  5.190755208333314 0.36791424418606766  C 5.764973958333314 0.12263808139533694  6.368055555555543 0  7 0  C 7.631944444444458 0  8.235026041666686 0.12263808139533694  8.809244791666686 0.36791424418606766  C 9.383463541666686 0.6131904069767415  9.880208333333314 0.9447674418605061  10.299479166666686 1.3626453488371908  C 10.71875 1.7805232558139323  11.051432291666686 2.275617732558146  11.297526041666686 2.8479287790697754  C 11.543619791666686 3.4202398255814046  11.666666666666686 4.0213178294573595  11.666666666666686 4.651162790697697  Z M 9.474609375 2.184774709302303  C 8.791015625 1.5034520348837077  7.966145833333314 1.1627906976744384  7 1.1627906976744384  C 6.033854166666686 1.1627906976744384  5.208984375 1.5034520348837077  4.525390625 2.184774709302303  C 3.841796875 2.8660973837208985  3.5 3.688226744186011  3.5 4.651162790697697  C 3.5 5.614098837209326  3.841796875 6.436228197674438  4.525390625 7.117550872093034  C 5.208984375 7.798873546511629  6.033854166666686 8.139534883720899  7 8.139534883720899  C 7.966145833333314 8.139534883720899  8.791015625 7.798873546511629  9.474609375 7.117550872093034  C 10.158203125 6.436228197674438  10.5 5.614098837209326  10.5 4.651162790697697  C 10.5 3.688226744186011  10.158203125 2.8660973837208985  9.474609375 2.184774709302303  Z M 3.1080729166666856 15.116279069767415  L 10.891927083333314 15.116279069767415  C 11.426649305555543 15.116279069767415  11.883897569444457 14.899769864341067  12.263671875 14.46675145348837  C 12.643446180555543 14.033733042635617  12.833333333333314 13.50835755813955  12.833333333333314 12.890625  C 12.833333333333314 11.44319282945736  12.594835069444457 10.30159883720927  12.117838541666686 9.465843023255843  C 11.640842013888914 8.63008720930236  10.955729166666686 8.191012596899213  10.0625 8.148619186046517  C 9.181423611111086 8.91775678294573  8.160590277777771 9.302325581395337  7 9.302325581395337  C 5.8394097222222285 9.302325581395337  4.818576388888914 8.91775678294573  3.9375 8.148619186046517  C 3.0442708333333144 8.191012596899213  2.359157986111086 8.63008720930236  1.8821614583333146 9.465843023255843  C 1.405164930555543 10.30159883720927  1.1666666666666856 11.44319282945736  1.1666666666666856 12.890625  C 1.1666666666666856 13.50835755813955  1.356553819444457 14.033733042635617  1.736328125 14.46675145348837  C 2.116102430555543 14.899769864341067  2.573350694444457 15.116279069767415  3.1080729166666856 15.116279069767415  Z " fill-rule="nonzero" fill="#666ee8" stroke="none" transform="matrix(1 0 0 1 1565 312 )" />
  </g>
</svg>