<?xml version="1.0" encoding="utf-8"?>
<svg version="1.1" xmlns:xlink="http://www.w3.org/1999/xlink" width="18px" height="20px" xmlns="http://www.w3.org/2000/svg">
  <g transform="matrix(1 0 0 1 -148 -739 )">
    <path d="M 2.7 0.3999999999999999  C 2.888854381999832 0.1481941573335579  3.185242696666947 0  3.5 0  L 14.5 0  C 14.814757303333053 0  15.111145618000169 0.1481941573335579  15.3 0.3999999999999999  L 18 4  L 18 19  C 18 19.552284749830793  17.552284749830793 20  17 20  L 1 20  C 0.44771525016920677 20  0 19.552284749830793  0 19  L 0 4  L 2.7 0.3999999999999999  Z M 2.5 4  L 15.5 4  L 14 2  L 4 2  L 2.5 4  Z M 6 10  L 6 8  L 4 8  L 3.999999999999999 10  C 3.999999999999999 12.761423749153966  6.238576250846034 15  9 15  C 11.761423749153966 15  14 12.761423749153966  14 10  L 14 8  L 12 8  L 12 10  C 12 11.65685424949238  10.65685424949238 13  9 13  C 7.34314575050762 13  6 11.65685424949238  6 10  Z " fill-rule="nonzero" fill="#ffffff" stroke="none" transform="matrix(1 0 0 1 148 739 )" />
  </g>
</svg>