<?xml version="1.0" encoding="utf-8"?>
<svg version="1.1" xmlns:xlink="http://www.w3.org/1999/xlink" width="14px" height="16px" xmlns="http://www.w3.org/2000/svg">
  <g transform="matrix(1 0 0 1 -749 -407 )">
    <path d="M 12.444444444444457 5.444444497177983  L 12.444444444444457 6.222222270899351  L 13.222222222222229 6.222222270899351  C 13.651777027646176 6.222222270899351  14 6.570445241437028  14 7.00000004462072  L 14 14.777777781834175  C 14 15.207332585017866  13.651777027646176 15.555555555555543  13.222222222222229 15.555555555555543  L 0.7777777777777715 15.555555555555543  C 0.34822297235382393 15.555555555555543  0 15.207332585017866  0 14.777777781834175  L 0 7.00000004462072  C 0 6.570445241437028  0.34822297235382393 6.222222270899351  0.7777777777777715 6.222222270899351  L 1.555555555555543 6.222222270899351  L 1.555555555555543 5.444444497177983  C 1.555555555555543 2.4375607937639074  3.9931163620323673 0  7 0  C 10.006883637967633 0  12.444444444444457 2.4375607937639074  12.444444444444457 5.444444416049464  Z M 12.444444444444457 8  L 1.555555555555543 8  L 1.555555555555543 14  L 12.444444444444457 14  L 12.444444444444457 8  Z M 6.2222222222222285 12.444444460670127  L 6.2222222222222285 9.333333365784767  L 7.7777777777777715 9.333333365784767  L 7.7777777777777715 12.444444460670127  L 6.2222222222222285 12.444444460670127  Z M 3.111111111111086 6.222222270899351  L 10.888888888888914 6.222222270899351  L 10.888888888888914 5.444444497177983  C 10.888888888888914 3.2966704812597527  9.147774027119738 1.5555556285712555  7 1.5555556285712555  C 4.852225972880262 1.5555556285712555  3.111111111111086 3.2966704812597527  3.111111111111086 5.444444497177983  L 3.111111111111086 6.222222270899351  Z " fill-rule="nonzero" fill="#cccccc" stroke="none" transform="matrix(1 0 0 1 749 407 )" />
  </g>
</svg>