<?xml version="1.0" encoding="utf-8"?>
<svg version="1.1" xmlns:xlink="http://www.w3.org/1999/xlink" width="349px" height="131px" xmlns="http://www.w3.org/2000/svg">
  <g transform="matrix(1 0 0 1 -14 -111 )">
    <path d="M 14 111  L 363 111  L 363 242  L 14 242  L 14 111  " fill-rule="nonzero" fill="#cccccc" stroke="none" />
    <path d="M 23 120  L 354 120  L 354 233  L 23 233  L 23 120  " fill-rule="nonzero" fill="#ffffff" stroke="none" />
    <path d="M 205.305 150.3  C 199.80300000000003 150.3  195.48000000000002 145.977  195.48000000000002 140.47500000000002  C 195.48000000000002 134.973  199.80300000000003 130.65  205.305 130.65  C 210.80700000000002 130.65  215.13000000000002 134.973  215.13000000000002 140.47500000000002  C 215.13000000000002 145.977  210.80700000000002 150.3  205.305 150.3  " fill-rule="nonzero" fill="#cccccc" stroke="none" />
    <path d="M 27 230  L 27 171.7  L 108 145.2  L 221.4 206.1272206303725  L 286.2 161.1  L 351 206.1272206303725  L 351 230  L 27 230  " fill-rule="nonzero" fill="#169bd5" stroke="none" />
  </g>
</svg>