<?xml version="1.0" encoding="utf-8"?>
<svg version="1.1" xmlns:xlink="http://www.w3.org/1999/xlink" width="349px" height="692px" xmlns="http://www.w3.org/2000/svg">
  <g transform="matrix(1 0 0 1 -1232 -56 )">
    <path d="M 1232 56  L 1581 56  L 1581 748  L 1232 748  L 1232 56  " fill-rule="nonzero" fill="#cccccc" stroke="none" />
    <path d="M 1256 80  L 1557 80  L 1557 724  L 1256 724  L 1256 80  " fill-rule="nonzero" fill="#ffffff" stroke="none" />
    <path d="M 1439.655 212.15  C 1424.997 212.15  1413.48 200.633  1413.48 185.97500000000002  C 1413.48 171.317  1424.997 159.8  1439.655 159.8  C 1454.3129999999999 159.8  1465.83 171.317  1465.83 185.97500000000002  C 1465.83 200.633  1454.3129999999999 212.15  1439.655 212.15  " fill-rule="nonzero" fill="#cccccc" stroke="none" />
    <path d="M 1265 716  L 1265 371.15  L 1336 214.39999999999998  L 1435.4 339.8  L 1492.2 308.45  L 1549 339.8  L 1549 716  L 1265 716  " fill-rule="nonzero" fill="#169bd5" stroke="none" />
  </g>
</svg>